ISO-10303-21;
HEADER;
/* Generated by software containing ST-Developer
 * from STEP Tools, Inc. (www.steptools.com) 
 */
/* OPTION: strings as raw bytes, not using required /X/ escapes */

FILE_DESCRIPTION(
/* description */ ('Unknown'),
/* implementation_level */ '2;1');

FILE_NAME(
/* name */ '700974600',
/* time_stamp */ '2019-02-12T14:23:52+01:00',
/* author */ ('Unknown'),
/* organization */ ('Unknown'),
/* preprocessor_version */ 'ST-DEVELOPER v16.7',
/* originating_system */ 'DEX',
/* authorisation */ $);

FILE_SCHEMA (('AUTOMOTIVE_DESIGN {1 0 10303 214 3 1 1}'));
ENDSEC;

DATA;
#10=PROPERTY_DEFINITION_REPRESENTATION(#14,#12);
#11=PROPERTY_DEFINITION_REPRESENTATION(#15,#13);
#12=REPRESENTATION('',(#16),#1013);
#13=REPRESENTATION('',(#17),#1013);
#14=PROPERTY_DEFINITION('pmi validation property','',#1022);
#15=PROPERTY_DEFINITION('pmi validation property','',#1022);
#16=VALUE_REPRESENTATION_ITEM('number of annotations',COUNT_MEASURE(0.));
#17=VALUE_REPRESENTATION_ITEM('number of views',COUNT_MEASURE(0.));
#18=DEGENERATE_TOROIDAL_SURFACE('',#653,0.224999999999999,1.,.T.);
#19=CONTEXT_DEPENDENT_SHAPE_REPRESENTATION(#23,#1024);
#20=CONTEXT_DEPENDENT_SHAPE_REPRESENTATION(#24,#1026);
#21=NEXT_ASSEMBLY_USAGE_OCCURRENCE('700974300_Body','700974300_Body',
'700974300_Body',#1027,#1028,'');
#22=NEXT_ASSEMBLY_USAGE_OCCURRENCE('700974300_Pin','700974300_Pin',
'700974300_Pin',#1027,#1029,'');
#23=(
REPRESENTATION_RELATIONSHIP(' ',' ',#585,#586)
REPRESENTATION_RELATIONSHIP_WITH_TRANSFORMATION(#25)
SHAPE_REPRESENTATION_RELATIONSHIP()
);
#24=(
REPRESENTATION_RELATIONSHIP(' ',' ',#587,#586)
REPRESENTATION_RELATIONSHIP_WITH_TRANSFORMATION(#26)
SHAPE_REPRESENTATION_RELATIONSHIP()
);
#25=ITEM_DEFINED_TRANSFORMATION(' ',' ',#588,#638);
#26=ITEM_DEFINED_TRANSFORMATION(' ',' ',#588,#656);
#27=SHAPE_REPRESENTATION_RELATIONSHIP('','',#585,#29);
#28=SHAPE_REPRESENTATION_RELATIONSHIP('','',#587,#30);
#29=ADVANCED_BREP_SHAPE_REPRESENTATION('',(#580),#1014);
#30=ADVANCED_BREP_SHAPE_REPRESENTATION('',(#581),#1015);
#31=CONICAL_SURFACE('',#625,2.8,0.531724067258806);
#32=CONICAL_SURFACE('',#647,3.2,0.197395559849881);
#33=B_SPLINE_CURVE_WITH_KNOTS('',3,(#888,#889,#890,#891),.UNSPECIFIED.,
 .F.,.F.,(4,4),(0.002811967025248,0.00360180324932723),.UNSPECIFIED.);
#34=B_SPLINE_CURVE_WITH_KNOTS('',3,(#895,#896,#897,#898),.UNSPECIFIED.,
 .F.,.F.,(4,4),(0.00192085070531324,0.00271130606744751),.UNSPECIFIED.);
#35=B_SPLINE_CURVE_WITH_KNOTS('',3,(#903,#904,#905,#906),.UNSPECIFIED.,
 .F.,.F.,(4,4),(0.00274933967187623,0.00353852625481174),.UNSPECIFIED.);
#36=B_SPLINE_CURVE_WITH_KNOTS('',3,(#907,#908,#909,#910),.UNSPECIFIED.,
 .F.,.F.,(4,4),(0.002811967025248,0.00360180324932723),.UNSPECIFIED.);
#37=B_SPLINE_CURVE_WITH_KNOTS('',3,(#915,#916,#917,#918),.UNSPECIFIED.,
 .F.,.F.,(4,4),(0.00274933967187623,0.00353852625481174),.UNSPECIFIED.);
#38=B_SPLINE_CURVE_WITH_KNOTS('',3,(#919,#920,#921,#922),.UNSPECIFIED.,
 .F.,.F.,(4,4),(0.000465702634116708,0.00125560544897536),.UNSPECIFIED.);
#39=B_SPLINE_CURVE_WITH_KNOTS('',3,(#927,#928,#929,#930),.UNSPECIFIED.,
 .F.,.F.,(4,4),(0.00192085070531324,0.00271130606744751),.UNSPECIFIED.);
#40=B_SPLINE_CURVE_WITH_KNOTS('',3,(#931,#932,#933,#934),.UNSPECIFIED.,
 .F.,.F.,(4,4),(0.000465702634116708,0.00125560544897536),.UNSPECIFIED.);
#41=TOROIDAL_SURFACE('',#607,1.5,0.5);
#42=TOROIDAL_SURFACE('',#609,1.5,0.5);
#43=TOROIDAL_SURFACE('',#611,1.5,0.5);
#44=TOROIDAL_SURFACE('',#613,1.5,0.5);
#45=TOROIDAL_SURFACE('',#641,2.5,1.5);
#46=PLANE('',#599);
#47=PLANE('',#601);
#48=PLANE('',#603);
#49=PLANE('',#605);
#50=PLANE('',#621);
#51=PLANE('',#623);
#52=PLANE('',#626);
#53=PLANE('',#627);
#54=PLANE('',#628);
#55=PLANE('',#629);
#56=PLANE('',#630);
#57=PLANE('',#631);
#58=PLANE('',#632);
#59=PLANE('',#633);
#60=PLANE('',#634);
#61=PLANE('',#635);
#62=PLANE('',#636);
#63=PLANE('',#637);
#64=PLANE('',#639);
#65=PLANE('',#645);
#66=PLANE('',#649);
#67=PLANE('',#655);
#68=LINE('',#834,#100);
#69=LINE('',#838,#101);
#70=LINE('',#842,#102);
#71=LINE('',#846,#103);
#72=LINE('',#850,#104);
#73=LINE('',#854,#105);
#74=LINE('',#858,#106);
#75=LINE('',#862,#107);
#76=LINE('',#864,#108);
#77=LINE('',#868,#109);
#78=LINE('',#873,#110);
#79=LINE('',#874,#111);
#80=LINE('',#879,#112);
#81=LINE('',#880,#113);
#82=LINE('',#885,#114);
#83=LINE('',#886,#115);
#84=LINE('',#938,#116);
#85=LINE('',#942,#117);
#86=LINE('',#943,#118);
#87=LINE('',#947,#119);
#88=LINE('',#948,#120);
#89=LINE('',#952,#121);
#90=LINE('',#953,#122);
#91=LINE('',#957,#123);
#92=LINE('',#966,#124);
#93=LINE('',#967,#125);
#94=LINE('',#971,#126);
#95=LINE('',#972,#127);
#96=LINE('',#976,#128);
#97=LINE('',#977,#129);
#98=LINE('',#981,#130);
#99=LINE('',#982,#131);
#100=VECTOR('',#665,1000.);
#101=VECTOR('',#668,1000.);
#102=VECTOR('',#671,1000.);
#103=VECTOR('',#674,1000.);
#104=VECTOR('',#677,1000.);
#105=VECTOR('',#680,1000.);
#106=VECTOR('',#683,1000.);
#107=VECTOR('',#686,1000.);
#108=VECTOR('',#689,1000.);
#109=VECTOR('',#692,1000.);
#110=VECTOR('',#697,1000.);
#111=VECTOR('',#698,1000.);
#112=VECTOR('',#703,1000.);
#113=VECTOR('',#704,1000.);
#114=VECTOR('',#709,1000.);
#115=VECTOR('',#710,1000.);
#116=VECTOR('',#731,1000.);
#117=VECTOR('',#734,1000.);
#118=VECTOR('',#735,1000.);
#119=VECTOR('',#738,1000.);
#120=VECTOR('',#739,1000.);
#121=VECTOR('',#742,1000.);
#122=VECTOR('',#743,1000.);
#123=VECTOR('',#746,1000.);
#124=VECTOR('',#759,1000.);
#125=VECTOR('',#760,1000.);
#126=VECTOR('',#767,1000.);
#127=VECTOR('',#768,1000.);
#128=VECTOR('',#775,1000.);
#129=VECTOR('',#776,1000.);
#130=VECTOR('',#783,1000.);
#131=VECTOR('',#784,1000.);
#132=ORIENTED_EDGE('',*,*,#276,.F.);
#133=ORIENTED_EDGE('',*,*,#277,.F.);
#134=ORIENTED_EDGE('',*,*,#278,.T.);
#135=ORIENTED_EDGE('',*,*,#279,.T.);
#136=ORIENTED_EDGE('',*,*,#280,.T.);
#137=ORIENTED_EDGE('',*,*,#281,.F.);
#138=ORIENTED_EDGE('',*,*,#282,.T.);
#139=ORIENTED_EDGE('',*,*,#283,.T.);
#140=ORIENTED_EDGE('',*,*,#284,.T.);
#141=ORIENTED_EDGE('',*,*,#285,.F.);
#142=ORIENTED_EDGE('',*,*,#286,.T.);
#143=ORIENTED_EDGE('',*,*,#287,.T.);
#144=ORIENTED_EDGE('',*,*,#288,.T.);
#145=ORIENTED_EDGE('',*,*,#289,.F.);
#146=ORIENTED_EDGE('',*,*,#290,.T.);
#147=ORIENTED_EDGE('',*,*,#291,.T.);
#148=ORIENTED_EDGE('',*,*,#292,.T.);
#149=ORIENTED_EDGE('',*,*,#291,.F.);
#150=ORIENTED_EDGE('',*,*,#293,.T.);
#151=ORIENTED_EDGE('',*,*,#294,.T.);
#152=ORIENTED_EDGE('',*,*,#295,.T.);
#153=ORIENTED_EDGE('',*,*,#296,.T.);
#154=ORIENTED_EDGE('',*,*,#297,.T.);
#155=ORIENTED_EDGE('',*,*,#287,.F.);
#156=ORIENTED_EDGE('',*,*,#298,.T.);
#157=ORIENTED_EDGE('',*,*,#299,.T.);
#158=ORIENTED_EDGE('',*,*,#300,.T.);
#159=ORIENTED_EDGE('',*,*,#283,.F.);
#160=ORIENTED_EDGE('',*,*,#301,.T.);
#161=ORIENTED_EDGE('',*,*,#302,.T.);
#162=ORIENTED_EDGE('',*,*,#303,.T.);
#163=ORIENTED_EDGE('',*,*,#279,.F.);
#164=ORIENTED_EDGE('',*,*,#304,.T.);
#165=ORIENTED_EDGE('',*,*,#294,.F.);
#166=ORIENTED_EDGE('',*,*,#305,.T.);
#167=ORIENTED_EDGE('',*,*,#306,.T.);
#168=ORIENTED_EDGE('',*,*,#307,.T.);
#169=ORIENTED_EDGE('',*,*,#308,.T.);
#170=ORIENTED_EDGE('',*,*,#309,.T.);
#171=ORIENTED_EDGE('',*,*,#296,.F.);
#172=ORIENTED_EDGE('',*,*,#310,.T.);
#173=ORIENTED_EDGE('',*,*,#311,.T.);
#174=ORIENTED_EDGE('',*,*,#312,.T.);
#175=ORIENTED_EDGE('',*,*,#299,.F.);
#176=ORIENTED_EDGE('',*,*,#313,.T.);
#177=ORIENTED_EDGE('',*,*,#314,.T.);
#178=ORIENTED_EDGE('',*,*,#315,.T.);
#179=ORIENTED_EDGE('',*,*,#302,.F.);
#180=ORIENTED_EDGE('',*,*,#316,.T.);
#181=ORIENTED_EDGE('',*,*,#317,.T.);
#182=ORIENTED_EDGE('',*,*,#308,.F.);
#183=ORIENTED_EDGE('',*,*,#318,.T.);
#184=ORIENTED_EDGE('',*,*,#319,.F.);
#185=ORIENTED_EDGE('',*,*,#320,.T.);
#186=ORIENTED_EDGE('',*,*,#311,.F.);
#187=ORIENTED_EDGE('',*,*,#321,.T.);
#188=ORIENTED_EDGE('',*,*,#322,.F.);
#189=ORIENTED_EDGE('',*,*,#323,.T.);
#190=ORIENTED_EDGE('',*,*,#314,.F.);
#191=ORIENTED_EDGE('',*,*,#324,.T.);
#192=ORIENTED_EDGE('',*,*,#325,.F.);
#193=ORIENTED_EDGE('',*,*,#326,.T.);
#194=ORIENTED_EDGE('',*,*,#306,.F.);
#195=ORIENTED_EDGE('',*,*,#327,.T.);
#196=ORIENTED_EDGE('',*,*,#328,.F.);
#197=ORIENTED_EDGE('',*,*,#329,.T.);
#198=ORIENTED_EDGE('',*,*,#276,.T.);
#199=ORIENTED_EDGE('',*,*,#330,.F.);
#200=ORIENTED_EDGE('',*,*,#331,.T.);
#201=ORIENTED_EDGE('',*,*,#317,.F.);
#202=ORIENTED_EDGE('',*,*,#330,.T.);
#203=ORIENTED_EDGE('',*,*,#331,.F.);
#204=ORIENTED_EDGE('',*,*,#281,.T.);
#205=ORIENTED_EDGE('',*,*,#332,.F.);
#206=ORIENTED_EDGE('',*,*,#322,.T.);
#207=ORIENTED_EDGE('',*,*,#333,.F.);
#208=ORIENTED_EDGE('',*,*,#303,.F.);
#209=ORIENTED_EDGE('',*,*,#315,.F.);
#210=ORIENTED_EDGE('',*,*,#323,.F.);
#211=ORIENTED_EDGE('',*,*,#332,.T.);
#212=ORIENTED_EDGE('',*,*,#280,.F.);
#213=ORIENTED_EDGE('',*,*,#333,.T.);
#214=ORIENTED_EDGE('',*,*,#321,.F.);
#215=ORIENTED_EDGE('',*,*,#313,.F.);
#216=ORIENTED_EDGE('',*,*,#301,.F.);
#217=ORIENTED_EDGE('',*,*,#282,.F.);
#218=ORIENTED_EDGE('',*,*,#277,.T.);
#219=ORIENTED_EDGE('',*,*,#334,.F.);
#220=ORIENTED_EDGE('',*,*,#325,.T.);
#221=ORIENTED_EDGE('',*,*,#335,.F.);
#222=ORIENTED_EDGE('',*,*,#295,.F.);
#223=ORIENTED_EDGE('',*,*,#307,.F.);
#224=ORIENTED_EDGE('',*,*,#326,.F.);
#225=ORIENTED_EDGE('',*,*,#334,.T.);
#226=ORIENTED_EDGE('',*,*,#292,.F.);
#227=ORIENTED_EDGE('',*,*,#335,.T.);
#228=ORIENTED_EDGE('',*,*,#324,.F.);
#229=ORIENTED_EDGE('',*,*,#316,.F.);
#230=ORIENTED_EDGE('',*,*,#304,.F.);
#231=ORIENTED_EDGE('',*,*,#278,.F.);
#232=ORIENTED_EDGE('',*,*,#289,.T.);
#233=ORIENTED_EDGE('',*,*,#336,.F.);
#234=ORIENTED_EDGE('',*,*,#328,.T.);
#235=ORIENTED_EDGE('',*,*,#337,.F.);
#236=ORIENTED_EDGE('',*,*,#297,.F.);
#237=ORIENTED_EDGE('',*,*,#309,.F.);
#238=ORIENTED_EDGE('',*,*,#329,.F.);
#239=ORIENTED_EDGE('',*,*,#336,.T.);
#240=ORIENTED_EDGE('',*,*,#288,.F.);
#241=ORIENTED_EDGE('',*,*,#337,.T.);
#242=ORIENTED_EDGE('',*,*,#327,.F.);
#243=ORIENTED_EDGE('',*,*,#305,.F.);
#244=ORIENTED_EDGE('',*,*,#293,.F.);
#245=ORIENTED_EDGE('',*,*,#290,.F.);
#246=ORIENTED_EDGE('',*,*,#285,.T.);
#247=ORIENTED_EDGE('',*,*,#338,.F.);
#248=ORIENTED_EDGE('',*,*,#319,.T.);
#249=ORIENTED_EDGE('',*,*,#339,.F.);
#250=ORIENTED_EDGE('',*,*,#339,.T.);
#251=ORIENTED_EDGE('',*,*,#318,.F.);
#252=ORIENTED_EDGE('',*,*,#310,.F.);
#253=ORIENTED_EDGE('',*,*,#298,.F.);
#254=ORIENTED_EDGE('',*,*,#286,.F.);
#255=ORIENTED_EDGE('',*,*,#300,.F.);
#256=ORIENTED_EDGE('',*,*,#312,.F.);
#257=ORIENTED_EDGE('',*,*,#320,.F.);
#258=ORIENTED_EDGE('',*,*,#338,.T.);
#259=ORIENTED_EDGE('',*,*,#284,.F.);
#260=ORIENTED_EDGE('',*,*,#340,.F.);
#261=ORIENTED_EDGE('',*,*,#341,.F.);
#262=ORIENTED_EDGE('',*,*,#340,.T.);
#263=ORIENTED_EDGE('',*,*,#342,.F.);
#264=ORIENTED_EDGE('',*,*,#341,.T.);
#265=ORIENTED_EDGE('',*,*,#343,.F.);
#266=ORIENTED_EDGE('',*,*,#342,.T.);
#267=ORIENTED_EDGE('',*,*,#344,.F.);
#268=ORIENTED_EDGE('',*,*,#343,.T.);
#269=ORIENTED_EDGE('',*,*,#345,.F.);
#270=ORIENTED_EDGE('',*,*,#344,.T.);
#271=ORIENTED_EDGE('',*,*,#346,.F.);
#272=ORIENTED_EDGE('',*,*,#345,.T.);
#273=ORIENTED_EDGE('',*,*,#347,.F.);
#274=ORIENTED_EDGE('',*,*,#346,.T.);
#275=ORIENTED_EDGE('',*,*,#347,.T.);
#276=EDGE_CURVE('',#348,#348,#400,.T.);
#277=EDGE_CURVE('',#349,#350,#401,.T.);
#278=EDGE_CURVE('',#349,#351,#68,.T.);
#279=EDGE_CURVE('',#351,#352,#402,.T.);
#280=EDGE_CURVE('',#352,#353,#69,.F.);
#281=EDGE_CURVE('',#354,#353,#403,.T.);
#282=EDGE_CURVE('',#354,#355,#70,.T.);
#283=EDGE_CURVE('',#355,#356,#404,.T.);
#284=EDGE_CURVE('',#356,#357,#71,.F.);
#285=EDGE_CURVE('',#358,#357,#405,.T.);
#286=EDGE_CURVE('',#358,#359,#72,.T.);
#287=EDGE_CURVE('',#359,#360,#406,.T.);
#288=EDGE_CURVE('',#360,#361,#73,.F.);
#289=EDGE_CURVE('',#362,#361,#407,.T.);
#290=EDGE_CURVE('',#362,#363,#74,.T.);
#291=EDGE_CURVE('',#363,#364,#408,.T.);
#292=EDGE_CURVE('',#364,#350,#75,.F.);
#293=EDGE_CURVE('',#363,#365,#76,.T.);
#294=EDGE_CURVE('',#365,#366,#409,.T.);
#295=EDGE_CURVE('',#366,#364,#77,.T.);
#296=EDGE_CURVE('',#367,#368,#410,.T.);
#297=EDGE_CURVE('',#368,#360,#78,.T.);
#298=EDGE_CURVE('',#359,#367,#79,.T.);
#299=EDGE_CURVE('',#369,#370,#411,.T.);
#300=EDGE_CURVE('',#370,#356,#80,.T.);
#301=EDGE_CURVE('',#355,#369,#81,.T.);
#302=EDGE_CURVE('',#371,#372,#412,.T.);
#303=EDGE_CURVE('',#372,#352,#82,.T.);
#304=EDGE_CURVE('',#351,#371,#83,.T.);
#305=EDGE_CURVE('',#365,#373,#33,.T.);
#306=EDGE_CURVE('',#373,#374,#413,.T.);
#307=EDGE_CURVE('',#374,#366,#34,.T.);
#308=EDGE_CURVE('',#375,#376,#414,.T.);
#309=EDGE_CURVE('',#376,#368,#35,.T.);
#310=EDGE_CURVE('',#367,#375,#36,.T.);
#311=EDGE_CURVE('',#377,#378,#415,.T.);
#312=EDGE_CURVE('',#378,#370,#37,.T.);
#313=EDGE_CURVE('',#369,#377,#38,.T.);
#314=EDGE_CURVE('',#379,#380,#416,.T.);
#315=EDGE_CURVE('',#380,#372,#39,.T.);
#316=EDGE_CURVE('',#371,#379,#40,.T.);
#317=EDGE_CURVE('',#381,#381,#417,.T.);
#318=EDGE_CURVE('',#375,#382,#84,.F.);
#319=EDGE_CURVE('',#383,#382,#418,.F.);
#320=EDGE_CURVE('',#383,#378,#85,.T.);
#321=EDGE_CURVE('',#377,#384,#86,.F.);
#322=EDGE_CURVE('',#385,#384,#419,.F.);
#323=EDGE_CURVE('',#385,#380,#87,.T.);
#324=EDGE_CURVE('',#379,#386,#88,.F.);
#325=EDGE_CURVE('',#387,#386,#420,.F.);
#326=EDGE_CURVE('',#387,#374,#89,.T.);
#327=EDGE_CURVE('',#373,#388,#90,.F.);
#328=EDGE_CURVE('',#389,#388,#421,.F.);
#329=EDGE_CURVE('',#389,#376,#91,.T.);
#330=EDGE_CURVE('',#390,#390,#422,.T.);
#331=EDGE_CURVE('',#391,#391,#423,.T.);
#332=EDGE_CURVE('',#385,#353,#92,.T.);
#333=EDGE_CURVE('',#354,#384,#93,.T.);
#334=EDGE_CURVE('',#387,#350,#94,.T.);
#335=EDGE_CURVE('',#349,#386,#95,.T.);
#336=EDGE_CURVE('',#389,#361,#96,.T.);
#337=EDGE_CURVE('',#362,#388,#97,.T.);
#338=EDGE_CURVE('',#383,#357,#98,.T.);
#339=EDGE_CURVE('',#358,#382,#99,.T.);
#340=EDGE_CURVE('',#392,#392,#424,.T.);
#341=EDGE_CURVE('',#393,#393,#425,.T.);
#342=EDGE_CURVE('',#394,#394,#426,.T.);
#343=EDGE_CURVE('',#395,#395,#427,.T.);
#344=EDGE_CURVE('',#396,#396,#428,.T.);
#345=EDGE_CURVE('',#397,#397,#429,.T.);
#346=EDGE_CURVE('',#398,#398,#430,.T.);
#347=EDGE_CURVE('',#399,#399,#431,.T.);
#348=VERTEX_POINT('',#830);
#349=VERTEX_POINT('',#832);
#350=VERTEX_POINT('',#833);
#351=VERTEX_POINT('',#835);
#352=VERTEX_POINT('',#837);
#353=VERTEX_POINT('',#839);
#354=VERTEX_POINT('',#841);
#355=VERTEX_POINT('',#843);
#356=VERTEX_POINT('',#845);
#357=VERTEX_POINT('',#847);
#358=VERTEX_POINT('',#849);
#359=VERTEX_POINT('',#851);
#360=VERTEX_POINT('',#853);
#361=VERTEX_POINT('',#855);
#362=VERTEX_POINT('',#857);
#363=VERTEX_POINT('',#859);
#364=VERTEX_POINT('',#861);
#365=VERTEX_POINT('',#865);
#366=VERTEX_POINT('',#867);
#367=VERTEX_POINT('',#871);
#368=VERTEX_POINT('',#872);
#369=VERTEX_POINT('',#877);
#370=VERTEX_POINT('',#878);
#371=VERTEX_POINT('',#883);
#372=VERTEX_POINT('',#884);
#373=VERTEX_POINT('',#892);
#374=VERTEX_POINT('',#894);
#375=VERTEX_POINT('',#901);
#376=VERTEX_POINT('',#902);
#377=VERTEX_POINT('',#913);
#378=VERTEX_POINT('',#914);
#379=VERTEX_POINT('',#925);
#380=VERTEX_POINT('',#926);
#381=VERTEX_POINT('',#937);
#382=VERTEX_POINT('',#939);
#383=VERTEX_POINT('',#941);
#384=VERTEX_POINT('',#944);
#385=VERTEX_POINT('',#946);
#386=VERTEX_POINT('',#949);
#387=VERTEX_POINT('',#951);
#388=VERTEX_POINT('',#954);
#389=VERTEX_POINT('',#956);
#390=VERTEX_POINT('',#960);
#391=VERTEX_POINT('',#963);
#392=VERTEX_POINT('',#988);
#393=VERTEX_POINT('',#991);
#394=VERTEX_POINT('',#994);
#395=VERTEX_POINT('',#997);
#396=VERTEX_POINT('',#1000);
#397=VERTEX_POINT('',#1003);
#398=VERTEX_POINT('',#1006);
#399=VERTEX_POINT('',#1009);
#400=CIRCLE('',#590,1.25);
#401=CIRCLE('',#591,1.25);
#402=CIRCLE('',#592,1.25);
#403=CIRCLE('',#593,1.25);
#404=CIRCLE('',#594,1.25);
#405=CIRCLE('',#595,1.25);
#406=CIRCLE('',#596,1.25);
#407=CIRCLE('',#597,1.25);
#408=CIRCLE('',#598,1.25);
#409=CIRCLE('',#600,1.5);
#410=CIRCLE('',#602,1.5);
#411=CIRCLE('',#604,1.5);
#412=CIRCLE('',#606,1.5);
#413=CIRCLE('',#608,2.);
#414=CIRCLE('',#610,2.);
#415=CIRCLE('',#612,2.);
#416=CIRCLE('',#614,2.);
#417=CIRCLE('',#616,2.);
#418=CIRCLE('',#617,2.);
#419=CIRCLE('',#618,2.);
#420=CIRCLE('',#619,2.);
#421=CIRCLE('',#620,2.);
#422=CIRCLE('',#622,2.3);
#423=CIRCLE('',#624,2.8);
#424=CIRCLE('',#640,2.5);
#425=CIRCLE('',#642,4.);
#426=CIRCLE('',#644,4.);
#427=CIRCLE('',#646,3.2);
#428=CIRCLE('',#648,3.);
#429=CIRCLE('',#650,1.225);
#430=CIRCLE('',#652,1.225);
#431=CIRCLE('',#654,0.224999999999999);
#432=EDGE_LOOP('',(#132));
#433=EDGE_LOOP('',(#133,#134,#135,#136,#137,#138,#139,#140,#141,#142,#143,
#144,#145,#146,#147,#148));
#434=EDGE_LOOP('',(#149,#150,#151,#152));
#435=EDGE_LOOP('',(#153,#154,#155,#156));
#436=EDGE_LOOP('',(#157,#158,#159,#160));
#437=EDGE_LOOP('',(#161,#162,#163,#164));
#438=EDGE_LOOP('',(#165,#166,#167,#168));
#439=EDGE_LOOP('',(#169,#170,#171,#172));
#440=EDGE_LOOP('',(#173,#174,#175,#176));
#441=EDGE_LOOP('',(#177,#178,#179,#180));
#442=EDGE_LOOP('',(#181));
#443=EDGE_LOOP('',(#182,#183,#184,#185,#186,#187,#188,#189,#190,#191,#192,
#193,#194,#195,#196,#197));
#444=EDGE_LOOP('',(#198));
#445=EDGE_LOOP('',(#199));
#446=EDGE_LOOP('',(#200));
#447=EDGE_LOOP('',(#201));
#448=EDGE_LOOP('',(#202));
#449=EDGE_LOOP('',(#203));
#450=EDGE_LOOP('',(#204,#205,#206,#207));
#451=EDGE_LOOP('',(#208,#209,#210,#211,#212));
#452=EDGE_LOOP('',(#213,#214,#215,#216,#217));
#453=EDGE_LOOP('',(#218,#219,#220,#221));
#454=EDGE_LOOP('',(#222,#223,#224,#225,#226));
#455=EDGE_LOOP('',(#227,#228,#229,#230,#231));
#456=EDGE_LOOP('',(#232,#233,#234,#235));
#457=EDGE_LOOP('',(#236,#237,#238,#239,#240));
#458=EDGE_LOOP('',(#241,#242,#243,#244,#245));
#459=EDGE_LOOP('',(#246,#247,#248,#249));
#460=EDGE_LOOP('',(#250,#251,#252,#253,#254));
#461=EDGE_LOOP('',(#255,#256,#257,#258,#259));
#462=EDGE_LOOP('',(#260));
#463=EDGE_LOOP('',(#261));
#464=EDGE_LOOP('',(#262));
#465=EDGE_LOOP('',(#263));
#466=EDGE_LOOP('',(#264));
#467=EDGE_LOOP('',(#265));
#468=EDGE_LOOP('',(#266));
#469=EDGE_LOOP('',(#267));
#470=EDGE_LOOP('',(#268));
#471=EDGE_LOOP('',(#269));
#472=EDGE_LOOP('',(#270));
#473=EDGE_LOOP('',(#271));
#474=EDGE_LOOP('',(#272));
#475=EDGE_LOOP('',(#273));
#476=EDGE_LOOP('',(#274));
#477=EDGE_LOOP('',(#275));
#478=FACE_BOUND('',#432,.T.);
#479=FACE_BOUND('',#433,.T.);
#480=FACE_BOUND('',#434,.T.);
#481=FACE_BOUND('',#435,.T.);
#482=FACE_BOUND('',#436,.T.);
#483=FACE_BOUND('',#437,.T.);
#484=FACE_BOUND('',#438,.T.);
#485=FACE_BOUND('',#439,.T.);
#486=FACE_BOUND('',#440,.T.);
#487=FACE_BOUND('',#441,.T.);
#488=FACE_BOUND('',#442,.T.);
#489=FACE_BOUND('',#443,.T.);
#490=FACE_BOUND('',#444,.T.);
#491=FACE_BOUND('',#445,.T.);
#492=FACE_BOUND('',#446,.T.);
#493=FACE_BOUND('',#447,.T.);
#494=FACE_BOUND('',#448,.T.);
#495=FACE_BOUND('',#449,.T.);
#496=FACE_BOUND('',#450,.T.);
#497=FACE_BOUND('',#451,.T.);
#498=FACE_BOUND('',#452,.T.);
#499=FACE_BOUND('',#453,.T.);
#500=FACE_BOUND('',#454,.T.);
#501=FACE_BOUND('',#455,.T.);
#502=FACE_BOUND('',#456,.T.);
#503=FACE_BOUND('',#457,.T.);
#504=FACE_BOUND('',#458,.T.);
#505=FACE_BOUND('',#459,.T.);
#506=FACE_BOUND('',#460,.T.);
#507=FACE_BOUND('',#461,.T.);
#508=FACE_BOUND('',#462,.T.);
#509=FACE_BOUND('',#463,.T.);
#510=FACE_BOUND('',#464,.T.);
#511=FACE_BOUND('',#465,.T.);
#512=FACE_BOUND('',#466,.T.);
#513=FACE_BOUND('',#467,.T.);
#514=FACE_BOUND('',#468,.T.);
#515=FACE_BOUND('',#469,.T.);
#516=FACE_BOUND('',#470,.T.);
#517=FACE_BOUND('',#471,.T.);
#518=FACE_BOUND('',#472,.T.);
#519=FACE_BOUND('',#473,.T.);
#520=FACE_BOUND('',#474,.T.);
#521=FACE_BOUND('',#475,.T.);
#522=FACE_BOUND('',#476,.T.);
#523=FACE_BOUND('',#477,.T.);
#524=CYLINDRICAL_SURFACE('',#589,1.25);
#525=CYLINDRICAL_SURFACE('',#615,2.);
#526=CYLINDRICAL_SURFACE('',#643,4.);
#527=CYLINDRICAL_SURFACE('',#651,1.225);
#528=ADVANCED_FACE('',(#478,#479),#524,.F.);
#529=ADVANCED_FACE('',(#480),#46,.T.);
#530=ADVANCED_FACE('',(#481),#47,.T.);
#531=ADVANCED_FACE('',(#482),#48,.T.);
#532=ADVANCED_FACE('',(#483),#49,.T.);
#533=ADVANCED_FACE('',(#484),#41,.T.);
#534=ADVANCED_FACE('',(#485),#42,.T.);
#535=ADVANCED_FACE('',(#486),#43,.T.);
#536=ADVANCED_FACE('',(#487),#44,.T.);
#537=ADVANCED_FACE('',(#488,#489),#525,.T.);
#538=ADVANCED_FACE('',(#490,#491),#50,.T.);
#539=ADVANCED_FACE('',(#492,#493),#51,.T.);
#540=ADVANCED_FACE('',(#494,#495),#31,.T.);
#541=ADVANCED_FACE('',(#496),#52,.F.);
#542=ADVANCED_FACE('',(#497),#53,.T.);
#543=ADVANCED_FACE('',(#498),#54,.T.);
#544=ADVANCED_FACE('',(#499),#55,.F.);
#545=ADVANCED_FACE('',(#500),#56,.T.);
#546=ADVANCED_FACE('',(#501),#57,.T.);
#547=ADVANCED_FACE('',(#502),#58,.F.);
#548=ADVANCED_FACE('',(#503),#59,.T.);
#549=ADVANCED_FACE('',(#504),#60,.T.);
#550=ADVANCED_FACE('',(#505),#61,.F.);
#551=ADVANCED_FACE('',(#506),#62,.T.);
#552=ADVANCED_FACE('',(#507),#63,.T.);
#553=ADVANCED_FACE('',(#508),#64,.F.);
#554=ADVANCED_FACE('',(#509,#510),#45,.T.);
#555=ADVANCED_FACE('',(#511,#512),#526,.T.);
#556=ADVANCED_FACE('',(#513,#514),#65,.F.);
#557=ADVANCED_FACE('',(#515,#516),#32,.F.);
#558=ADVANCED_FACE('',(#517,#518),#66,.F.);
#559=ADVANCED_FACE('',(#519,#520),#527,.T.);
#560=ADVANCED_FACE('',(#521,#522),#18,.T.);
#561=ADVANCED_FACE('',(#523),#67,.F.);
#562=CLOSED_SHELL('',(#528,#529,#530,#531,#532,#533,#534,#535,#536,#537,
#538,#539,#540,#541,#542,#543,#544,#545,#546,#547,#548,#549,#550,#551,#552));
#563=CLOSED_SHELL('',(#553,#554,#555,#556,#557,#558,#559,#560,#561));
#564=STYLED_ITEM('',(#566),#580);
#565=STYLED_ITEM('',(#567),#581);
#566=PRESENTATION_STYLE_ASSIGNMENT((#568));
#567=PRESENTATION_STYLE_ASSIGNMENT((#569));
#568=SURFACE_STYLE_USAGE(.BOTH.,#570);
#569=SURFACE_STYLE_USAGE(.BOTH.,#571);
#570=SURFACE_SIDE_STYLE('',(#572));
#571=SURFACE_SIDE_STYLE('',(#573));
#572=SURFACE_STYLE_FILL_AREA(#574);
#573=SURFACE_STYLE_FILL_AREA(#575);
#574=FILL_AREA_STYLE('',(#576));
#575=FILL_AREA_STYLE('',(#577));
#576=FILL_AREA_STYLE_COLOUR('',#578);
#577=FILL_AREA_STYLE_COLOUR('',#579);
#578=COLOUR_RGB('',0.200000002980232,0.200000002980232,0.200000002980232);
#579=COLOUR_RGB('',0.119999997317791,0.119999997317791,0.119999997317791);
#580=MANIFOLD_SOLID_BREP('',#562);
#581=MANIFOLD_SOLID_BREP('',#563);
#582=SHAPE_DEFINITION_REPRESENTATION(#1023,#585);
#583=SHAPE_DEFINITION_REPRESENTATION(#1022,#586);
#584=SHAPE_DEFINITION_REPRESENTATION(#1025,#587);
#585=SHAPE_REPRESENTATION('700974300_Body',(#588),#1014);
#586=SHAPE_REPRESENTATION('700974600',(#588,#638,#656),#1013);
#587=SHAPE_REPRESENTATION('700974300_Pin',(#588),#1015);
#588=AXIS2_PLACEMENT_3D('',#827,#657,#658);
#589=AXIS2_PLACEMENT_3D('',#828,#659,#660);
#590=AXIS2_PLACEMENT_3D('',#829,#661,#662);
#591=AXIS2_PLACEMENT_3D('',#831,#663,#664);
#592=AXIS2_PLACEMENT_3D('',#836,#666,#667);
#593=AXIS2_PLACEMENT_3D('',#840,#669,#670);
#594=AXIS2_PLACEMENT_3D('',#844,#672,#673);
#595=AXIS2_PLACEMENT_3D('',#848,#675,#676);
#596=AXIS2_PLACEMENT_3D('',#852,#678,#679);
#597=AXIS2_PLACEMENT_3D('',#856,#681,#682);
#598=AXIS2_PLACEMENT_3D('',#860,#684,#685);
#599=AXIS2_PLACEMENT_3D('',#863,#687,#688);
#600=AXIS2_PLACEMENT_3D('',#866,#690,#691);
#601=AXIS2_PLACEMENT_3D('',#869,#693,#694);
#602=AXIS2_PLACEMENT_3D('',#870,#695,#696);
#603=AXIS2_PLACEMENT_3D('',#875,#699,#700);
#604=AXIS2_PLACEMENT_3D('',#876,#701,#702);
#605=AXIS2_PLACEMENT_3D('',#881,#705,#706);
#606=AXIS2_PLACEMENT_3D('',#882,#707,#708);
#607=AXIS2_PLACEMENT_3D('',#887,#711,#712);
#608=AXIS2_PLACEMENT_3D('',#893,#713,#714);
#609=AXIS2_PLACEMENT_3D('',#899,#715,#716);
#610=AXIS2_PLACEMENT_3D('',#900,#717,#718);
#611=AXIS2_PLACEMENT_3D('',#911,#719,#720);
#612=AXIS2_PLACEMENT_3D('',#912,#721,#722);
#613=AXIS2_PLACEMENT_3D('',#923,#723,#724);
#614=AXIS2_PLACEMENT_3D('',#924,#725,#726);
#615=AXIS2_PLACEMENT_3D('',#935,#727,#728);
#616=AXIS2_PLACEMENT_3D('',#936,#729,#730);
#617=AXIS2_PLACEMENT_3D('',#940,#732,#733);
#618=AXIS2_PLACEMENT_3D('',#945,#736,#737);
#619=AXIS2_PLACEMENT_3D('',#950,#740,#741);
#620=AXIS2_PLACEMENT_3D('',#955,#744,#745);
#621=AXIS2_PLACEMENT_3D('',#958,#747,#748);
#622=AXIS2_PLACEMENT_3D('',#959,#749,#750);
#623=AXIS2_PLACEMENT_3D('',#961,#751,#752);
#624=AXIS2_PLACEMENT_3D('',#962,#753,#754);
#625=AXIS2_PLACEMENT_3D('',#964,#755,#756);
#626=AXIS2_PLACEMENT_3D('',#965,#757,#758);
#627=AXIS2_PLACEMENT_3D('',#968,#761,#762);
#628=AXIS2_PLACEMENT_3D('',#969,#763,#764);
#629=AXIS2_PLACEMENT_3D('',#970,#765,#766);
#630=AXIS2_PLACEMENT_3D('',#973,#769,#770);
#631=AXIS2_PLACEMENT_3D('',#974,#771,#772);
#632=AXIS2_PLACEMENT_3D('',#975,#773,#774);
#633=AXIS2_PLACEMENT_3D('',#978,#777,#778);
#634=AXIS2_PLACEMENT_3D('',#979,#779,#780);
#635=AXIS2_PLACEMENT_3D('',#980,#781,#782);
#636=AXIS2_PLACEMENT_3D('',#983,#785,#786);
#637=AXIS2_PLACEMENT_3D('',#984,#787,#788);
#638=AXIS2_PLACEMENT_3D('',#985,#789,#790);
#639=AXIS2_PLACEMENT_3D('',#986,#791,#792);
#640=AXIS2_PLACEMENT_3D('',#987,#793,#794);
#641=AXIS2_PLACEMENT_3D('',#989,#795,#796);
#642=AXIS2_PLACEMENT_3D('',#990,#797,#798);
#643=AXIS2_PLACEMENT_3D('',#992,#799,#800);
#644=AXIS2_PLACEMENT_3D('',#993,#801,#802);
#645=AXIS2_PLACEMENT_3D('',#995,#803,#804);
#646=AXIS2_PLACEMENT_3D('',#996,#805,#806);
#647=AXIS2_PLACEMENT_3D('',#998,#807,#808);
#648=AXIS2_PLACEMENT_3D('',#999,#809,#810);
#649=AXIS2_PLACEMENT_3D('',#1001,#811,#812);
#650=AXIS2_PLACEMENT_3D('',#1002,#813,#814);
#651=AXIS2_PLACEMENT_3D('',#1004,#815,#816);
#652=AXIS2_PLACEMENT_3D('',#1005,#817,#818);
#653=AXIS2_PLACEMENT_3D('',#1007,#819,#820);
#654=AXIS2_PLACEMENT_3D('',#1008,#821,#822);
#655=AXIS2_PLACEMENT_3D('',#1010,#823,#824);
#656=AXIS2_PLACEMENT_3D('',#1011,#825,#826);
#657=DIRECTION('',(0.,0.,1.));
#658=DIRECTION('',(1.,0.,0.));
#659=DIRECTION('',(0.,0.,-1.));
#660=DIRECTION('',(-1.,0.,0.));
#661=DIRECTION('',(0.,0.,-1.));
#662=DIRECTION('',(-1.,0.,0.));
#663=DIRECTION('',(0.,0.,1.));
#664=DIRECTION('',(1.,0.,0.));
#665=DIRECTION('',(0.,0.,-1.));
#666=DIRECTION('',(0.,0.,-1.));
#667=DIRECTION('',(-1.,0.,0.));
#668=DIRECTION('',(0.,0.,-1.));
#669=DIRECTION('',(0.,0.,1.));
#670=DIRECTION('',(1.,0.,0.));
#671=DIRECTION('',(0.,0.,-1.));
#672=DIRECTION('',(0.,0.,-1.));
#673=DIRECTION('',(-1.,0.,0.));
#674=DIRECTION('',(0.,0.,-1.));
#675=DIRECTION('',(0.,0.,1.));
#676=DIRECTION('',(1.,0.,0.));
#677=DIRECTION('',(0.,0.,-1.));
#678=DIRECTION('',(0.,0.,-1.));
#679=DIRECTION('',(-1.,0.,0.));
#680=DIRECTION('',(0.,0.,-1.));
#681=DIRECTION('',(0.,0.,1.));
#682=DIRECTION('',(1.,0.,0.));
#683=DIRECTION('',(0.,0.,-1.));
#684=DIRECTION('',(0.,0.,-1.));
#685=DIRECTION('',(-1.,0.,0.));
#686=DIRECTION('',(0.,0.,-1.));
#687=DIRECTION('',(0.,0.,-1.));
#688=DIRECTION('',(-1.,0.,0.));
#689=DIRECTION('',(-1.,3.94255335449275E-16,0.));
#690=DIRECTION('',(0.,0.,-1.));
#691=DIRECTION('',(-1.,0.,0.));
#692=DIRECTION('',(9.52783727335747E-16,-1.,0.));
#693=DIRECTION('',(0.,0.,-1.));
#694=DIRECTION('',(-1.,0.,0.));
#695=DIRECTION('',(0.,0.,-1.));
#696=DIRECTION('',(-1.,0.,0.));
#697=DIRECTION('',(1.,2.29982279012077E-16,0.));
#698=DIRECTION('',(-6.57092225748791E-16,-1.,0.));
#699=DIRECTION('',(0.,0.,-1.));
#700=DIRECTION('',(-1.,0.,0.));
#701=DIRECTION('',(0.,0.,-1.));
#702=DIRECTION('',(-1.,0.,0.));
#703=DIRECTION('',(-4.92819169311593E-16,1.,0.));
#704=DIRECTION('',(1.,-3.94255335449274E-16,0.));
#705=DIRECTION('',(0.,0.,-1.));
#706=DIRECTION('',(-1.,0.,0.));
#707=DIRECTION('',(0.,0.,-1.));
#708=DIRECTION('',(-1.,0.,0.));
#709=DIRECTION('',(-1.,-4.59964558024153E-16,0.));
#710=DIRECTION('',(8.87074504760868E-16,1.,0.));
#711=DIRECTION('',(0.,0.,-1.));
#712=DIRECTION('',(-1.,0.,0.));
#713=DIRECTION('',(0.,0.,-1.));
#714=DIRECTION('',(-1.,0.,0.));
#715=DIRECTION('',(0.,0.,-1.));
#716=DIRECTION('',(-1.,0.,0.));
#717=DIRECTION('',(0.,0.,-1.));
#718=DIRECTION('',(-1.,0.,0.));
#719=DIRECTION('',(0.,0.,-1.));
#720=DIRECTION('',(-1.,0.,0.));
#721=DIRECTION('',(0.,0.,-1.));
#722=DIRECTION('',(-1.,0.,0.));
#723=DIRECTION('',(0.,0.,-1.));
#724=DIRECTION('',(-1.,0.,0.));
#725=DIRECTION('',(0.,0.,-1.));
#726=DIRECTION('',(-1.,0.,0.));
#727=DIRECTION('',(0.,0.,-1.));
#728=DIRECTION('',(-1.,0.,0.));
#729=DIRECTION('',(0.,0.,-1.));
#730=DIRECTION('',(-1.,0.,0.));
#731=DIRECTION('',(0.,0.,-1.));
#732=DIRECTION('',(0.,0.,1.));
#733=DIRECTION('',(1.,0.,0.));
#734=DIRECTION('',(0.,0.,-1.));
#735=DIRECTION('',(0.,0.,-1.));
#736=DIRECTION('',(0.,0.,1.));
#737=DIRECTION('',(1.,0.,0.));
#738=DIRECTION('',(0.,0.,-1.));
#739=DIRECTION('',(0.,0.,-1.));
#740=DIRECTION('',(0.,0.,1.));
#741=DIRECTION('',(1.,0.,0.));
#742=DIRECTION('',(0.,0.,-1.));
#743=DIRECTION('',(0.,0.,-1.));
#744=DIRECTION('',(0.,0.,1.));
#745=DIRECTION('',(1.,0.,0.));
#746=DIRECTION('',(0.,0.,-1.));
#747=DIRECTION('',(0.,0.,1.));
#748=DIRECTION('',(1.,0.,0.));
#749=DIRECTION('',(0.,0.,-1.));
#750=DIRECTION('',(-1.,0.,0.));
#751=DIRECTION('',(0.,0.,-1.));
#752=DIRECTION('',(-1.,0.,0.));
#753=DIRECTION('',(0.,0.,-1.));
#754=DIRECTION('',(-1.,0.,0.));
#755=DIRECTION('',(0.,0.,-1.));
#756=DIRECTION('',(-1.,0.,0.));
#757=DIRECTION('',(0.,0.,1.));
#758=DIRECTION('',(1.,0.,0.));
#759=DIRECTION('',(-1.,-4.59964558024153E-16,0.));
#760=DIRECTION('',(1.,-3.94255335449274E-16,0.));
#761=DIRECTION('',(4.59964558024153E-16,-1.,0.));
#762=DIRECTION('',(1.,4.59964558024153E-16,0.));
#763=DIRECTION('',(3.94255335449274E-16,1.,0.));
#764=DIRECTION('',(-1.,3.94255335449274E-16,0.));
#765=DIRECTION('',(0.,0.,1.));
#766=DIRECTION('',(1.,0.,0.));
#767=DIRECTION('',(9.52783727335747E-16,-1.,0.));
#768=DIRECTION('',(8.87074504760868E-16,1.,0.));
#769=DIRECTION('',(1.,9.52783727335747E-16,0.));
#770=DIRECTION('',(-9.52783727335747E-16,1.,0.));
#771=DIRECTION('',(-1.,8.87074504760868E-16,0.));
#772=DIRECTION('',(-8.87074504760868E-16,-1.,0.));
#773=DIRECTION('',(0.,0.,1.));
#774=DIRECTION('',(1.,0.,0.));
#775=DIRECTION('',(1.,2.29982279012077E-16,0.));
#776=DIRECTION('',(-1.,3.94255335449275E-16,0.));
#777=DIRECTION('',(-2.29982279012077E-16,1.,0.));
#778=DIRECTION('',(-1.,-2.29982279012077E-16,0.));
#779=DIRECTION('',(-3.94255335449275E-16,-1.,0.));
#780=DIRECTION('',(1.,-3.94255335449275E-16,0.));
#781=DIRECTION('',(0.,0.,1.));
#782=DIRECTION('',(1.,0.,0.));
#783=DIRECTION('',(-4.92819169311593E-16,1.,0.));
#784=DIRECTION('',(-6.57092225748791E-16,-1.,0.));
#785=DIRECTION('',(1.,-6.57092225748791E-16,0.));
#786=DIRECTION('',(6.57092225748791E-16,1.,0.));
#787=DIRECTION('',(-1.,-4.92819169311593E-16,0.));
#788=DIRECTION('',(4.92819169311593E-16,-1.,0.));
#789=DIRECTION('',(0.,0.,1.));
#790=DIRECTION('',(1.,0.,0.));
#791=DIRECTION('',(1.22561984715753E-16,0.,-1.));
#792=DIRECTION('',(-1.,0.,-1.22561984715753E-16));
#793=DIRECTION('',(1.22561984715753E-16,0.,-1.));
#794=DIRECTION('',(-1.,0.,-1.22561984715753E-16));
#795=DIRECTION('',(1.22561984715753E-16,0.,-1.));
#796=DIRECTION('',(-1.,0.,-1.22561984715753E-16));
#797=DIRECTION('',(1.22561984715753E-16,0.,-1.));
#798=DIRECTION('',(-1.,0.,-1.22561984715753E-16));
#799=DIRECTION('',(1.22561984715753E-16,0.,-1.));
#800=DIRECTION('',(-1.,0.,-1.22561984715753E-16));
#801=DIRECTION('',(1.22561984715753E-16,0.,-1.));
#802=DIRECTION('',(-1.,0.,-1.22561984715753E-16));
#803=DIRECTION('',(-1.22561984715753E-16,0.,1.));
#804=DIRECTION('',(1.,0.,1.22561984715753E-16));
#805=DIRECTION('',(1.22561984715753E-16,0.,-1.));
#806=DIRECTION('',(-1.,0.,-1.22561984715753E-16));
#807=DIRECTION('',(1.22561984715753E-16,0.,-1.));
#808=DIRECTION('',(-1.,0.,-1.22561984715753E-16));
#809=DIRECTION('',(1.22561984715753E-16,0.,-1.));
#810=DIRECTION('',(-1.,0.,-1.22561984715753E-16));
#811=DIRECTION('',(-1.22561984715753E-16,0.,1.));
#812=DIRECTION('',(1.,0.,1.22561984715753E-16));
#813=DIRECTION('',(1.22561984715753E-16,0.,-1.));
#814=DIRECTION('',(-1.,0.,-1.22561984715753E-16));
#815=DIRECTION('',(1.22561984715753E-16,0.,-1.));
#816=DIRECTION('',(-1.,0.,-1.22561984715753E-16));
#817=DIRECTION('',(1.22561984715753E-16,0.,-1.));
#818=DIRECTION('',(-1.,0.,-1.22561984715753E-16));
#819=DIRECTION('',(1.22561984715753E-16,0.,-1.));
#820=DIRECTION('',(-1.,0.,-1.22561984715753E-16));
#821=DIRECTION('',(1.22561984715753E-16,0.,-1.));
#822=DIRECTION('',(-1.,0.,-1.22561984715753E-16));
#823=DIRECTION('',(-1.22561984715753E-16,0.,1.));
#824=DIRECTION('',(1.,0.,1.22561984715753E-16));
#825=DIRECTION('',(-1.11022302462516E-16,1.11022302462516E-16,1.));
#826=DIRECTION('',(-1.,-2.22044604925031E-16,-1.11022302462516E-16));
#827=CARTESIAN_POINT('',(0.,0.,0.));
#828=CARTESIAN_POINT('',(0.,0.,0.));
#829=CARTESIAN_POINT('',(0.,0.,-3.06161699786837E-18));
#830=CARTESIAN_POINT('',(-1.25,0.,-3.06161699786837E-18));
#831=CARTESIAN_POINT('',(0.,0.,-6.35));
#832=CARTESIAN_POINT('',(0.35,1.2,-6.35));
#833=CARTESIAN_POINT('',(-0.350000000000001,1.2,-6.35));
#834=CARTESIAN_POINT('',(0.35,1.2,0.));
#835=CARTESIAN_POINT('',(0.35,1.2,-10.85));
#836=CARTESIAN_POINT('',(0.,0.,-10.85));
#837=CARTESIAN_POINT('',(1.2,0.350000000000001,-10.85));
#838=CARTESIAN_POINT('',(1.2,0.350000000000001,0.));
#839=CARTESIAN_POINT('',(1.2,0.350000000000001,-6.35));
#840=CARTESIAN_POINT('',(0.,0.,-6.35));
#841=CARTESIAN_POINT('',(1.2,-0.350000000000001,-6.35));
#842=CARTESIAN_POINT('',(1.2,-0.350000000000001,0.));
#843=CARTESIAN_POINT('',(1.2,-0.350000000000001,-10.85));
#844=CARTESIAN_POINT('',(0.,0.,-10.85));
#845=CARTESIAN_POINT('',(0.35,-1.2,-10.85));
#846=CARTESIAN_POINT('',(0.35,-1.2,0.));
#847=CARTESIAN_POINT('',(0.35,-1.2,-6.35));
#848=CARTESIAN_POINT('',(0.,0.,-6.35));
#849=CARTESIAN_POINT('',(-0.350000000000001,-1.2,-6.35));
#850=CARTESIAN_POINT('',(-0.350000000000001,-1.2,0.));
#851=CARTESIAN_POINT('',(-0.350000000000001,-1.2,-10.85));
#852=CARTESIAN_POINT('',(0.,0.,-10.85));
#853=CARTESIAN_POINT('',(-1.2,-0.350000000000001,-10.85));
#854=CARTESIAN_POINT('',(-1.2,-0.350000000000001,0.));
#855=CARTESIAN_POINT('',(-1.2,-0.350000000000001,-6.35));
#856=CARTESIAN_POINT('',(0.,0.,-6.35));
#857=CARTESIAN_POINT('',(-1.2,0.350000000000001,-6.35));
#858=CARTESIAN_POINT('',(-1.2,0.350000000000001,0.));
#859=CARTESIAN_POINT('',(-1.2,0.350000000000001,-10.85));
#860=CARTESIAN_POINT('',(0.,0.,-10.85));
#861=CARTESIAN_POINT('',(-0.350000000000001,1.2,-10.85));
#862=CARTESIAN_POINT('',(-0.350000000000001,1.2,0.));
#863=CARTESIAN_POINT('',(-1.5,0.,-10.85));
#864=CARTESIAN_POINT('',(-0.35,0.350000000000001,-10.85));
#865=CARTESIAN_POINT('',(-1.45859521458148,0.350000000000001,-10.85));
#866=CARTESIAN_POINT('',(0.,0.,-10.85));
#867=CARTESIAN_POINT('',(-0.350000000000001,1.45859521458148,-10.85));
#868=CARTESIAN_POINT('',(-0.350000000000002,2.,-10.85));
#869=CARTESIAN_POINT('',(-1.5,0.,-10.85));
#870=CARTESIAN_POINT('',(0.,0.,-10.85));
#871=CARTESIAN_POINT('',(-0.350000000000001,-1.45859521458148,-10.85));
#872=CARTESIAN_POINT('',(-1.45859521458148,-0.350000000000001,-10.85));
#873=CARTESIAN_POINT('',(-2.,-0.350000000000001,-10.85));
#874=CARTESIAN_POINT('',(-0.35,-0.350000000000001,-10.85));
#875=CARTESIAN_POINT('',(-1.5,0.,-10.85));
#876=CARTESIAN_POINT('',(0.,0.,-10.85));
#877=CARTESIAN_POINT('',(1.45859521458148,-0.350000000000001,-10.85));
#878=CARTESIAN_POINT('',(0.35,-1.45859521458148,-10.85));
#879=CARTESIAN_POINT('',(0.35,-2.,-10.85));
#880=CARTESIAN_POINT('',(0.35,-0.35,-10.85));
#881=CARTESIAN_POINT('',(-1.5,0.,-10.85));
#882=CARTESIAN_POINT('',(0.,0.,-10.85));
#883=CARTESIAN_POINT('',(0.35,1.45859521458148,-10.85));
#884=CARTESIAN_POINT('',(1.45859521458148,0.350000000000001,-10.85));
#885=CARTESIAN_POINT('',(2.,0.350000000000001,-10.85));
#886=CARTESIAN_POINT('',(0.349999999999999,0.350000000000001,-10.85));
#887=CARTESIAN_POINT('',(0.,0.,-10.35));
#888=CARTESIAN_POINT('',(-1.45859521458148,0.350000000000001,-10.85));
#889=CARTESIAN_POINT('',(-1.72181234231636,0.350000000000002,-10.85));
#890=CARTESIAN_POINT('',(-1.96913686675168,0.350000000000002,-10.6132924449488));
#891=CARTESIAN_POINT('',(-1.96913686675168,0.350000000000002,-10.35));
#892=CARTESIAN_POINT('',(-1.96913686675152,0.350000000000002,-10.35));
#893=CARTESIAN_POINT('',(0.,0.,-10.35));
#894=CARTESIAN_POINT('',(-0.350000000000002,1.96913686675152,-10.35));
#895=CARTESIAN_POINT('',(-0.350000000000001,1.96913686675159,-10.35));
#896=CARTESIAN_POINT('',(-0.350000000000001,1.96913686675158,-10.6136667743799));
#897=CARTESIAN_POINT('',(-0.350000000000001,1.72451049819655,-10.85));
#898=CARTESIAN_POINT('',(-0.350000000000001,1.45859521458148,-10.85));
#899=CARTESIAN_POINT('',(0.,0.,-10.35));
#900=CARTESIAN_POINT('',(0.,0.,-10.35));
#901=CARTESIAN_POINT('',(-0.350000000000002,-1.96913686675152,-10.35));
#902=CARTESIAN_POINT('',(-1.96913686675152,-0.350000000000001,-10.35));
#903=CARTESIAN_POINT('',(-1.96913686675152,-0.350000000000001,-10.35));
#904=CARTESIAN_POINT('',(-1.96913686675152,-0.350000000000001,-10.616837706661));
#905=CARTESIAN_POINT('',(-1.72391026646568,-0.350000000000001,-10.85));
#906=CARTESIAN_POINT('',(-1.45859521458148,-0.350000000000001,-10.85));
#907=CARTESIAN_POINT('',(-0.350000000000001,-1.45859521458148,-10.85));
#908=CARTESIAN_POINT('',(-0.350000000000001,-1.72181234231636,-10.85));
#909=CARTESIAN_POINT('',(-0.350000000000002,-1.96913686675168,-10.6132924449488));
#910=CARTESIAN_POINT('',(-0.350000000000002,-1.96913686675168,-10.35));
#911=CARTESIAN_POINT('',(0.,0.,-10.35));
#912=CARTESIAN_POINT('',(0.,0.,-10.35));
#913=CARTESIAN_POINT('',(1.96913686675152,-0.350000000000001,-10.35));
#914=CARTESIAN_POINT('',(0.35,-1.96913686675152,-10.35));
#915=CARTESIAN_POINT('',(0.35,-1.96913686675152,-10.35));
#916=CARTESIAN_POINT('',(0.35,-1.96913686675152,-10.616837706661));
#917=CARTESIAN_POINT('',(0.35,-1.72391026646568,-10.85));
#918=CARTESIAN_POINT('',(0.35,-1.45859521458148,-10.85));
#919=CARTESIAN_POINT('',(1.45859521458148,-0.350000000000001,-10.85));
#920=CARTESIAN_POINT('',(1.7220681095253,-0.350000000000001,-10.85));
#921=CARTESIAN_POINT('',(1.96913686675153,-0.350000000000001,-10.6148685523648));
#922=CARTESIAN_POINT('',(1.96913686675153,-0.350000000000001,-10.35));
#923=CARTESIAN_POINT('',(0.,0.,-10.35));
#924=CARTESIAN_POINT('',(0.,0.,-10.35));
#925=CARTESIAN_POINT('',(0.35,1.96913686675152,-10.35));
#926=CARTESIAN_POINT('',(1.96913686675152,0.350000000000001,-10.35));
#927=CARTESIAN_POINT('',(1.96913686675159,0.350000000000001,-10.35));
#928=CARTESIAN_POINT('',(1.96913686675158,0.350000000000001,-10.6136667743799));
#929=CARTESIAN_POINT('',(1.72451049819655,0.350000000000001,-10.85));
#930=CARTESIAN_POINT('',(1.45859521458148,0.350000000000001,-10.85));
#931=CARTESIAN_POINT('',(0.35,1.45859521458148,-10.85));
#932=CARTESIAN_POINT('',(0.35,1.7220681095253,-10.85));
#933=CARTESIAN_POINT('',(0.35,1.96913686675153,-10.6148685523648));
#934=CARTESIAN_POINT('',(0.35,1.96913686675153,-10.35));
#935=CARTESIAN_POINT('',(0.,0.,0.));
#936=CARTESIAN_POINT('',(0.,0.,-0.85));
#937=CARTESIAN_POINT('',(-2.,0.,-0.85));
#938=CARTESIAN_POINT('',(-0.350000000000002,-1.96913686675152,0.));
#939=CARTESIAN_POINT('',(-0.350000000000002,-1.96913686675152,-6.35));
#940=CARTESIAN_POINT('',(0.,0.,-6.35));
#941=CARTESIAN_POINT('',(0.35,-1.96913686675152,-6.35));
#942=CARTESIAN_POINT('',(0.35,-1.96913686675152,0.));
#943=CARTESIAN_POINT('',(1.96913686675152,-0.350000000000001,0.));
#944=CARTESIAN_POINT('',(1.96913686675152,-0.350000000000001,-6.35));
#945=CARTESIAN_POINT('',(0.,0.,-6.35));
#946=CARTESIAN_POINT('',(1.96913686675152,0.350000000000001,-6.35));
#947=CARTESIAN_POINT('',(1.96913686675152,0.350000000000001,0.));
#948=CARTESIAN_POINT('',(0.35,1.96913686675152,0.));
#949=CARTESIAN_POINT('',(0.35,1.96913686675152,-6.35));
#950=CARTESIAN_POINT('',(0.,0.,-6.35));
#951=CARTESIAN_POINT('',(-0.350000000000002,1.96913686675152,-6.35));
#952=CARTESIAN_POINT('',(-0.350000000000002,1.96913686675152,0.));
#953=CARTESIAN_POINT('',(-1.96913686675152,0.350000000000002,0.));
#954=CARTESIAN_POINT('',(-1.96913686675152,0.350000000000002,-6.35));
#955=CARTESIAN_POINT('',(0.,0.,-6.35));
#956=CARTESIAN_POINT('',(-1.96913686675152,-0.350000000000001,-6.35));
#957=CARTESIAN_POINT('',(-1.96913686675152,-0.350000000000001,0.));
#958=CARTESIAN_POINT('',(-1.25,0.,-6.73555739531044E-17));
#959=CARTESIAN_POINT('',(0.,0.,-1.3164953090834E-16));
#960=CARTESIAN_POINT('',(-2.3,0.,-1.3164953090834E-16));
#961=CARTESIAN_POINT('',(-2.8,0.,-0.85));
#962=CARTESIAN_POINT('',(0.,0.,-0.85));
#963=CARTESIAN_POINT('',(-2.8,0.,-0.85));
#964=CARTESIAN_POINT('',(0.,0.,-0.85));
#965=CARTESIAN_POINT('',(0.,0.,-6.35));
#966=CARTESIAN_POINT('',(2.,0.350000000000001,-6.35));
#967=CARTESIAN_POINT('',(0.35,-0.35,-6.35));
#968=CARTESIAN_POINT('',(2.,0.350000000000001,-6.35));
#969=CARTESIAN_POINT('',(0.35,-0.35,-6.35));
#970=CARTESIAN_POINT('',(0.,0.,-6.35));
#971=CARTESIAN_POINT('',(-0.350000000000002,2.,-6.35));
#972=CARTESIAN_POINT('',(0.349999999999999,0.350000000000001,-6.35));
#973=CARTESIAN_POINT('',(-0.350000000000002,2.,-6.35));
#974=CARTESIAN_POINT('',(0.349999999999999,0.350000000000001,-6.35));
#975=CARTESIAN_POINT('',(0.,0.,-6.35));
#976=CARTESIAN_POINT('',(-2.,-0.350000000000001,-6.35));
#977=CARTESIAN_POINT('',(-0.35,0.350000000000001,-6.35));
#978=CARTESIAN_POINT('',(-2.,-0.350000000000001,-6.35));
#979=CARTESIAN_POINT('',(-0.35,0.350000000000001,-6.35));
#980=CARTESIAN_POINT('',(0.,0.,-6.35));
#981=CARTESIAN_POINT('',(0.35,-2.,-6.35));
#982=CARTESIAN_POINT('',(-0.35,-0.350000000000001,-6.35));
#983=CARTESIAN_POINT('',(-0.35,-0.350000000000001,-6.35));
#984=CARTESIAN_POINT('',(0.35,-2.,-6.35));
#985=CARTESIAN_POINT('',(0.,0.,0.));
#986=CARTESIAN_POINT('',(-1.22464679914735E-17,0.,12.95));
#987=CARTESIAN_POINT('',(-1.587177702069E-15,0.,12.95));
#988=CARTESIAN_POINT('',(-2.5,0.,12.95));
#989=CARTESIAN_POINT('',(-1.30104260698261E-15,0.,11.45));
#990=CARTESIAN_POINT('',(-1.40333472499537E-15,0.,11.45));
#991=CARTESIAN_POINT('',(-4.,0.,11.45));
#992=CARTESIAN_POINT('',(-1.40946282423116E-15,0.,11.5));
#993=CARTESIAN_POINT('',(-1.34205373263749E-15,0.,10.95));
#994=CARTESIAN_POINT('',(-4.,0.,10.95));
#995=CARTESIAN_POINT('',(-4.,0.,10.95));
#996=CARTESIAN_POINT('',(-1.34205373263749E-15,0.,10.95));
#997=CARTESIAN_POINT('',(-3.2,0.,10.95));
#998=CARTESIAN_POINT('',(-1.34205373263749E-15,0.,10.95));
#999=CARTESIAN_POINT('',(-1.46461571735324E-15,0.,11.95));
#1000=CARTESIAN_POINT('',(-3.,0.,11.95));
#1001=CARTESIAN_POINT('',(-3.,0.,11.95));
#1002=CARTESIAN_POINT('',(-1.46461571735324E-15,0.,11.95));
#1003=CARTESIAN_POINT('',(-1.225,0.,11.95));
#1004=CARTESIAN_POINT('',(-1.40946282423116E-15,0.,11.5));
#1005=CARTESIAN_POINT('',(-1.22561984715752E-16,0.,0.999999999999999));
#1006=CARTESIAN_POINT('',(-1.225,0.,0.999999999999999));
#1007=CARTESIAN_POINT('',(-1.35525271560688E-16,0.,1.));
#1008=CARTESIAN_POINT('',(0.,0.,0.));
#1009=CARTESIAN_POINT('',(-0.224999999999999,0.,-2.75764465610443E-17));
#1010=CARTESIAN_POINT('',(-0.224999999999999,0.,-1.37882232805221E-17));
#1011=CARTESIAN_POINT('',(-1.68180686768353E-15,7.99360577730112E-16,-7.2));
#1012=MECHANICAL_DESIGN_GEOMETRIC_PRESENTATION_REPRESENTATION('',(#564,
#565),#1013);
#1013=(
GEOMETRIC_REPRESENTATION_CONTEXT(3)
GLOBAL_UNCERTAINTY_ASSIGNED_CONTEXT((#1016))
GLOBAL_UNIT_ASSIGNED_CONTEXT((#1021,#1020,#1019))
REPRESENTATION_CONTEXT('700974600','TOP_LEVEL_ASSEMBLY_PART')
);
#1014=(
GEOMETRIC_REPRESENTATION_CONTEXT(3)
GLOBAL_UNCERTAINTY_ASSIGNED_CONTEXT((#1017))
GLOBAL_UNIT_ASSIGNED_CONTEXT((#1021,#1020,#1019))
REPRESENTATION_CONTEXT('700974300_Body','COMPONENT_PART')
);
#1015=(
GEOMETRIC_REPRESENTATION_CONTEXT(3)
GLOBAL_UNCERTAINTY_ASSIGNED_CONTEXT((#1018))
GLOBAL_UNIT_ASSIGNED_CONTEXT((#1021,#1020,#1019))
REPRESENTATION_CONTEXT('700974300_Pin','COMPONENT_PART')
);
#1016=UNCERTAINTY_MEASURE_WITH_UNIT(LENGTH_MEASURE(0.005),#1021,
'DISTANCE_ACCURACY_VALUE','Maximum Tolerance applied to model');
#1017=UNCERTAINTY_MEASURE_WITH_UNIT(LENGTH_MEASURE(0.005),#1021,
'DISTANCE_ACCURACY_VALUE','Maximum Tolerance applied to model');
#1018=UNCERTAINTY_MEASURE_WITH_UNIT(LENGTH_MEASURE(0.005),#1021,
'DISTANCE_ACCURACY_VALUE','Maximum Tolerance applied to model');
#1019=(
NAMED_UNIT(*)
SI_UNIT($,.STERADIAN.)
SOLID_ANGLE_UNIT()
);
#1020=(
NAMED_UNIT(*)
PLANE_ANGLE_UNIT()
SI_UNIT($,.RADIAN.)
);
#1021=(
LENGTH_UNIT()
NAMED_UNIT(*)
SI_UNIT(.MILLI.,.METRE.)
);
#1022=PRODUCT_DEFINITION_SHAPE('','',#1027);
#1023=PRODUCT_DEFINITION_SHAPE('','',#1028);
#1024=PRODUCT_DEFINITION_SHAPE(' ','NAUO PRDDFN',#21);
#1025=PRODUCT_DEFINITION_SHAPE('','',#1029);
#1026=PRODUCT_DEFINITION_SHAPE(' ','NAUO PRDDFN',#22);
#1027=PRODUCT_DEFINITION('','',#1033,#1030);
#1028=PRODUCT_DEFINITION('','',#1034,#1031);
#1029=PRODUCT_DEFINITION('','',#1035,#1032);
#1030=PRODUCT_DEFINITION_CONTEXT('',#1049,'design');
#1031=PRODUCT_DEFINITION_CONTEXT('',#1049,'design');
#1032=PRODUCT_DEFINITION_CONTEXT('',#1049,'design');
#1033=PRODUCT_DEFINITION_FORMATION_WITH_SPECIFIED_SOURCE('','',#1039,
 .NOT_KNOWN.);
#1034=PRODUCT_DEFINITION_FORMATION_WITH_SPECIFIED_SOURCE('','',#1040,
 .NOT_KNOWN.);
#1035=PRODUCT_DEFINITION_FORMATION_WITH_SPECIFIED_SOURCE('','',#1041,
 .NOT_KNOWN.);
#1036=PRODUCT_RELATED_PRODUCT_CATEGORY('','',(#1039));
#1037=PRODUCT_RELATED_PRODUCT_CATEGORY('','',(#1040));
#1038=PRODUCT_RELATED_PRODUCT_CATEGORY('','',(#1041));
#1039=PRODUCT('700974600','700974600','700974600',(#1045));
#1040=PRODUCT('700974300_Body','700974300_Body','700974300_Body',(#1046));
#1041=PRODUCT('700974300_Pin','700974300_Pin','700974300_Pin',(#1047));
#1042=PRODUCT_CATEGORY('','');
#1043=PRODUCT_CATEGORY('','');
#1044=PRODUCT_CATEGORY('','');
#1045=PRODUCT_CONTEXT('',#1049,'mechanical');
#1046=PRODUCT_CONTEXT('',#1049,'mechanical');
#1047=PRODUCT_CONTEXT('',#1049,'mechanical');
#1048=APPLICATION_PROTOCOL_DEFINITION('international standard',
'automotive_design',2010,#1049);
#1049=APPLICATION_CONTEXT(
'core data for automotive mechanical design processes');
ENDSEC;
END-ISO-10303-21;
