ISO-10303-21;
HEADER;
/* Generated by software containing ST-Developer
 * from STEP Tools, Inc. (www.steptools.com) 
 */
/* OPTION: strings as raw bytes, not using required /X/ escapes */

FILE_DESCRIPTION(
/* description */ ('Unknown'),
/* implementation_level */ '2;1');

FILE_NAME(
/* name */ '700973800UV',
/* time_stamp */ '2018-09-14T10:24:58+02:00',
/* author */ ('Unknown'),
/* organization */ ('Unknown'),
/* preprocessor_version */ 'ST-DEVELOPER v16.7',
/* originating_system */ 'DEX',
/* authorisation */ $);

FILE_SCHEMA (('AUTOMOTIVE_DESIGN {1 0 10303 214 3 1 1}'));
ENDSEC;

DATA;
#10=PROPERTY_DEFINITION_REPRESENTATION(#14,#12);
#11=PROPERTY_DEFINITION_REPRESENTATION(#15,#13);
#12=REPRESENTATION('',(#16),#1116);
#13=REPRESENTATION('',(#17),#1116);
#14=PROPERTY_DEFINITION('pmi validation property','',#1125);
#15=PROPERTY_DEFINITION('pmi validation property','',#1125);
#16=VALUE_REPRESENTATION_ITEM('number of annotations',COUNT_MEASURE(0.));
#17=VALUE_REPRESENTATION_ITEM('number of views',COUNT_MEASURE(0.));
#18=SPHERICAL_SURFACE('',#680,9.);
#19=VERTEX_LOOP('',#432);
#20=CONTEXT_DEPENDENT_SHAPE_REPRESENTATION(#24,#1127);
#21=CONTEXT_DEPENDENT_SHAPE_REPRESENTATION(#25,#1129);
#22=NEXT_ASSEMBLY_USAGE_OCCURRENCE('700973800UV_body',
'700973800UV_body','700973800UV_body',#1130,#1131,'');
#23=NEXT_ASSEMBLY_USAGE_OCCURRENCE('700973800UV_pin','700973800UV_pin',
'700973800UV_pin',#1130,#1132,'');
#24=(
REPRESENTATION_RELATIONSHIP(' ',' ',#624,#625)
REPRESENTATION_RELATIONSHIP_WITH_TRANSFORMATION(#26)
SHAPE_REPRESENTATION_RELATIONSHIP()
);
#25=(
REPRESENTATION_RELATIONSHIP(' ',' ',#626,#625)
REPRESENTATION_RELATIONSHIP_WITH_TRANSFORMATION(#27)
SHAPE_REPRESENTATION_RELATIONSHIP()
);
#26=ITEM_DEFINED_TRANSFORMATION(' ',' ',#627,#673);
#27=ITEM_DEFINED_TRANSFORMATION(' ',' ',#627,#689);
#28=SHAPE_REPRESENTATION_RELATIONSHIP('','',#624,#30);
#29=SHAPE_REPRESENTATION_RELATIONSHIP('','',#626,#31);
#30=ADVANCED_BREP_SHAPE_REPRESENTATION('',(#619),#1117);
#31=ADVANCED_BREP_SHAPE_REPRESENTATION('',(#620),#1118);
#32=CONICAL_SURFACE('',#668,2.3,0.523598775598299);
#33=CONICAL_SURFACE('',#688,2.5,0.523598775598298);
#34=DEGENERATE_TOROIDAL_SURFACE('',#646,1.63026315789474,2.58026315789474,
 .F.);
#35=DEGENERATE_TOROIDAL_SURFACE('',#648,1.63026315789474,2.58026315789474,
 .F.);
#36=DEGENERATE_TOROIDAL_SURFACE('',#650,1.63026315789474,2.58026315789474,
 .F.);
#37=DEGENERATE_TOROIDAL_SURFACE('',#652,1.63026315789474,2.58026315789474,
 .F.);
#38=DEGENERATE_TOROIDAL_SURFACE('',#679,0.0566005291005296,1.00160052910053,
 .F.);
#39=PLANE('',#642);
#40=PLANE('',#643);
#41=PLANE('',#644);
#42=PLANE('',#645);
#43=PLANE('',#656);
#44=PLANE('',#658);
#45=PLANE('',#660);
#46=PLANE('',#661);
#47=PLANE('',#662);
#48=PLANE('',#663);
#49=PLANE('',#664);
#50=PLANE('',#665);
#51=PLANE('',#666);
#52=PLANE('',#667);
#53=PLANE('',#674);
#54=PLANE('',#686);
#55=TOROIDAL_SURFACE('',#634,1.525,0.2);
#56=TOROIDAL_SURFACE('',#636,1.525,0.2);
#57=TOROIDAL_SURFACE('',#638,1.525,0.2);
#58=TOROIDAL_SURFACE('',#640,1.525,0.2);
#59=TOROIDAL_SURFACE('',#682,2.35,0.8);
#60=B_SPLINE_CURVE_WITH_KNOTS('',3,(#851,#852,#853,#854,#855),
 .UNSPECIFIED.,.F.,.F.,(4,1,4),(-0.000391049199671189,2.72844747224157E-9,
0.000391054656566134),.UNSPECIFIED.);
#61=B_SPLINE_CURVE_WITH_KNOTS('',3,(#863,#864,#865,#866,#867),
 .UNSPECIFIED.,.F.,.F.,(4,1,4),(0.,0.000391056955071496,0.000782113910142991),
 .UNSPECIFIED.);
#62=B_SPLINE_CURVE_WITH_KNOTS('',3,(#875,#876,#877,#878,#879),
 .UNSPECIFIED.,.F.,.F.,(4,1,4),(-0.00039104919967119,2.72844747251262E-9,
0.000391054656566135),.UNSPECIFIED.);
#63=B_SPLINE_CURVE_WITH_KNOTS('',3,(#887,#888,#889,#890,#891),
 .UNSPECIFIED.,.F.,.F.,(4,1,4),(-0.00039104919967119,2.7284474724042E-9,
0.000391054656566134),.UNSPECIFIED.);
#64=B_SPLINE_CURVE_WITH_KNOTS('',3,(#897,#898,#899,#900),.UNSPECIFIED.,
 .F.,.F.,(4,4),(0.000741268673457598,0.001055937788277),.UNSPECIFIED.);
#65=B_SPLINE_CURVE_WITH_KNOTS('',3,(#902,#903,#904,#905),.UNSPECIFIED.,
 .F.,.F.,(4,4),(0.000203657915172052,0.000518293257101387),
 .UNSPECIFIED.);
#66=B_SPLINE_CURVE_WITH_KNOTS('',3,(#909,#910,#911,#912),.UNSPECIFIED.,
 .F.,.F.,(4,4),(0.000203657915172052,0.000518293257101387),
 .UNSPECIFIED.);
#67=B_SPLINE_CURVE_WITH_KNOTS('',3,(#916,#917,#918,#919),.UNSPECIFIED.,
 .F.,.F.,(4,4),(0.00108587418409389,0.00140012472057008),.UNSPECIFIED.);
#68=B_SPLINE_CURVE_WITH_KNOTS('',3,(#921,#922,#923,#924),.UNSPECIFIED.,
 .F.,.F.,(4,4),(0.00111830513498029,0.00143270811860184),.UNSPECIFIED.);
#69=B_SPLINE_CURVE_WITH_KNOTS('',3,(#928,#929,#930,#931),.UNSPECIFIED.,
 .F.,.F.,(4,4),(0.00108587418409389,0.00140012472057008),.UNSPECIFIED.);
#70=B_SPLINE_CURVE_WITH_KNOTS('',3,(#933,#934,#935,#936),.UNSPECIFIED.,
 .F.,.F.,(4,4),(0.00111830513498029,0.00143270811860184),.UNSPECIFIED.);
#71=B_SPLINE_CURVE_WITH_KNOTS('',3,(#940,#941,#942,#943),.UNSPECIFIED.,
 .F.,.F.,(4,4),(0.000741268673457597,0.001055937788277),.UNSPECIFIED.);
#72=B_SPLINE_CURVE_WITH_KNOTS('',3,(#961,#962,#963,#964,#965),
 .UNSPECIFIED.,.F.,.F.,(4,1,4),(0.00755345351105802,0.00833936735074398,
0.00912528119042995),.UNSPECIFIED.);
#73=B_SPLINE_CURVE_WITH_KNOTS('',3,(#968,#969,#970,#971),.UNSPECIFIED.,
 .F.,.F.,(4,4),(9.85733517061587E-15,0.000393584092204167),
 .UNSPECIFIED.);
#74=B_SPLINE_CURVE_WITH_KNOTS('',3,(#975,#976,#977,#978),.UNSPECIFIED.,
 .F.,.F.,(4,4),(0.,0.000393591234457819),.UNSPECIFIED.);
#75=B_SPLINE_CURVE_WITH_KNOTS('',3,(#980,#981,#982,#983,#984),
 .UNSPECIFIED.,.F.,.F.,(4,1,4),(0.00764172945185961,0.00842710299407767,
0.00921247653629573),.UNSPECIFIED.);
#76=B_SPLINE_CURVE_WITH_KNOTS('',3,(#986,#987,#988,#989,#990),
 .UNSPECIFIED.,.F.,.F.,(4,1,4),(0.00755345351105802,0.00833936735074398,
0.00912528119042995),.UNSPECIFIED.);
#77=B_SPLINE_CURVE_WITH_KNOTS('',3,(#993,#994,#995,#996),.UNSPECIFIED.,
 .F.,.F.,(4,4),(9.85822415942984E-15,0.000393584092204167),
 .UNSPECIFIED.);
#78=B_SPLINE_CURVE_WITH_KNOTS('',3,(#999,#1000,#1001,#1002),
 .UNSPECIFIED.,.F.,.F.,(4,4),(0.,0.00039359123445782),.UNSPECIFIED.);
#79=B_SPLINE_CURVE_WITH_KNOTS('',3,(#1004,#1005,#1006,#1007,#1008),
 .UNSPECIFIED.,.F.,.F.,(4,1,4),(0.0076417294518596,0.00842710299407766,
0.00921247653629572),.UNSPECIFIED.);
#80=B_SPLINE_CURVE_WITH_KNOTS('',3,(#1010,#1011,#1012,#1013,#1014),
 .UNSPECIFIED.,.F.,.F.,(4,1,4),(0.00755345351105802,0.00833936735074398,
0.00912528119042995),.UNSPECIFIED.);
#81=B_SPLINE_CURVE_WITH_KNOTS('',3,(#1017,#1018,#1019,#1020),
 .UNSPECIFIED.,.F.,.F.,(4,4),(9.85733517061587E-15,0.000393584092204168),
 .UNSPECIFIED.);
#82=B_SPLINE_CURVE_WITH_KNOTS('',3,(#1023,#1024,#1025,#1026),
 .UNSPECIFIED.,.F.,.F.,(4,4),(0.,0.000393591234457819),.UNSPECIFIED.);
#83=B_SPLINE_CURVE_WITH_KNOTS('',3,(#1028,#1029,#1030,#1031,#1032),
 .UNSPECIFIED.,.F.,.F.,(4,1,4),(0.0076417294518596,0.00842710299407766,
0.00921247653629572),.UNSPECIFIED.);
#84=B_SPLINE_CURVE_WITH_KNOTS('',3,(#1034,#1035,#1036,#1037,#1038),
 .UNSPECIFIED.,.F.,.F.,(4,1,4),(0.0076417294518596,0.00842710299407766,
0.00921247653629572),.UNSPECIFIED.);
#85=B_SPLINE_CURVE_WITH_KNOTS('',3,(#1041,#1042,#1043,#1044,#1045),
 .UNSPECIFIED.,.F.,.F.,(4,1,4),(0.00755345351105802,0.00833936735074398,
0.00912528119042995),.UNSPECIFIED.);
#86=B_SPLINE_CURVE_WITH_KNOTS('',3,(#1047,#1048,#1049,#1050),
 .UNSPECIFIED.,.F.,.F.,(4,4),(9.85645524166728E-15,0.000393584092204167),
 .UNSPECIFIED.);
#87=B_SPLINE_CURVE_WITH_KNOTS('',3,(#1052,#1053,#1054,#1055),
 .UNSPECIFIED.,.F.,.F.,(4,4),(0.,0.000393591234457819),.UNSPECIFIED.);
#88=LINE('',#848,#116);
#89=LINE('',#857,#117);
#90=LINE('',#861,#118);
#91=LINE('',#869,#119);
#92=LINE('',#873,#120);
#93=LINE('',#881,#121);
#94=LINE('',#885,#122);
#95=LINE('',#893,#123);
#96=LINE('',#945,#124);
#97=LINE('',#947,#125);
#98=LINE('',#949,#126);
#99=LINE('',#951,#127);
#100=LINE('',#953,#128);
#101=LINE('',#955,#129);
#102=LINE('',#957,#130);
#103=LINE('',#959,#131);
#104=LINE('',#1066,#132);
#105=LINE('',#1067,#133);
#106=LINE('',#1069,#134);
#107=LINE('',#1070,#135);
#108=LINE('',#1072,#136);
#109=LINE('',#1074,#137);
#110=LINE('',#1075,#138);
#111=LINE('',#1077,#139);
#112=LINE('',#1079,#140);
#113=LINE('',#1080,#141);
#114=LINE('',#1082,#142);
#115=LINE('',#1084,#143);
#116=VECTOR('',#696,1000.);
#117=VECTOR('',#697,1000.);
#118=VECTOR('',#700,1000.);
#119=VECTOR('',#701,1000.);
#120=VECTOR('',#704,1000.);
#121=VECTOR('',#705,1000.);
#122=VECTOR('',#708,1000.);
#123=VECTOR('',#709,1000.);
#124=VECTOR('',#730,1000.);
#125=VECTOR('',#731,1000.);
#126=VECTOR('',#734,1000.);
#127=VECTOR('',#735,1000.);
#128=VECTOR('',#738,1000.);
#129=VECTOR('',#739,1000.);
#130=VECTOR('',#742,1000.);
#131=VECTOR('',#743,1000.);
#132=VECTOR('',#774,1000.);
#133=VECTOR('',#775,1000.);
#134=VECTOR('',#778,1000.);
#135=VECTOR('',#779,1000.);
#136=VECTOR('',#782,1000.);
#137=VECTOR('',#785,1000.);
#138=VECTOR('',#786,1000.);
#139=VECTOR('',#789,1000.);
#140=VECTOR('',#792,1000.);
#141=VECTOR('',#793,1000.);
#142=VECTOR('',#796,1000.);
#143=VECTOR('',#799,1000.);
#144=ORIENTED_EDGE('',*,*,#302,.T.);
#145=ORIENTED_EDGE('',*,*,#303,.F.);
#146=ORIENTED_EDGE('',*,*,#304,.T.);
#147=ORIENTED_EDGE('',*,*,#305,.F.);
#148=ORIENTED_EDGE('',*,*,#306,.F.);
#149=ORIENTED_EDGE('',*,*,#307,.F.);
#150=ORIENTED_EDGE('',*,*,#308,.T.);
#151=ORIENTED_EDGE('',*,*,#309,.F.);
#152=ORIENTED_EDGE('',*,*,#310,.F.);
#153=ORIENTED_EDGE('',*,*,#311,.F.);
#154=ORIENTED_EDGE('',*,*,#312,.T.);
#155=ORIENTED_EDGE('',*,*,#313,.F.);
#156=ORIENTED_EDGE('',*,*,#314,.F.);
#157=ORIENTED_EDGE('',*,*,#315,.F.);
#158=ORIENTED_EDGE('',*,*,#316,.T.);
#159=ORIENTED_EDGE('',*,*,#317,.F.);
#160=ORIENTED_EDGE('',*,*,#318,.F.);
#161=ORIENTED_EDGE('',*,*,#319,.F.);
#162=ORIENTED_EDGE('',*,*,#318,.T.);
#163=ORIENTED_EDGE('',*,*,#320,.F.);
#164=ORIENTED_EDGE('',*,*,#321,.F.);
#165=ORIENTED_EDGE('',*,*,#322,.F.);
#166=ORIENTED_EDGE('',*,*,#323,.F.);
#167=ORIENTED_EDGE('',*,*,#324,.F.);
#168=ORIENTED_EDGE('',*,*,#306,.T.);
#169=ORIENTED_EDGE('',*,*,#325,.F.);
#170=ORIENTED_EDGE('',*,*,#326,.F.);
#171=ORIENTED_EDGE('',*,*,#327,.F.);
#172=ORIENTED_EDGE('',*,*,#310,.T.);
#173=ORIENTED_EDGE('',*,*,#328,.F.);
#174=ORIENTED_EDGE('',*,*,#329,.F.);
#175=ORIENTED_EDGE('',*,*,#330,.F.);
#176=ORIENTED_EDGE('',*,*,#314,.T.);
#177=ORIENTED_EDGE('',*,*,#331,.T.);
#178=ORIENTED_EDGE('',*,*,#332,.T.);
#179=ORIENTED_EDGE('',*,*,#323,.T.);
#180=ORIENTED_EDGE('',*,*,#333,.T.);
#181=ORIENTED_EDGE('',*,*,#334,.T.);
#182=ORIENTED_EDGE('',*,*,#326,.T.);
#183=ORIENTED_EDGE('',*,*,#335,.T.);
#184=ORIENTED_EDGE('',*,*,#336,.T.);
#185=ORIENTED_EDGE('',*,*,#329,.T.);
#186=ORIENTED_EDGE('',*,*,#337,.T.);
#187=ORIENTED_EDGE('',*,*,#321,.T.);
#188=ORIENTED_EDGE('',*,*,#338,.T.);
#189=ORIENTED_EDGE('',*,*,#339,.F.);
#190=ORIENTED_EDGE('',*,*,#340,.T.);
#191=ORIENTED_EDGE('',*,*,#341,.F.);
#192=ORIENTED_EDGE('',*,*,#342,.T.);
#193=ORIENTED_EDGE('',*,*,#343,.F.);
#194=ORIENTED_EDGE('',*,*,#344,.F.);
#195=ORIENTED_EDGE('',*,*,#345,.T.);
#196=ORIENTED_EDGE('',*,*,#346,.F.);
#197=ORIENTED_EDGE('',*,*,#347,.T.);
#198=ORIENTED_EDGE('',*,*,#348,.F.);
#199=ORIENTED_EDGE('',*,*,#349,.F.);
#200=ORIENTED_EDGE('',*,*,#350,.T.);
#201=ORIENTED_EDGE('',*,*,#351,.F.);
#202=ORIENTED_EDGE('',*,*,#352,.T.);
#203=ORIENTED_EDGE('',*,*,#353,.F.);
#204=ORIENTED_EDGE('',*,*,#354,.F.);
#205=ORIENTED_EDGE('',*,*,#355,.F.);
#206=ORIENTED_EDGE('',*,*,#356,.T.);
#207=ORIENTED_EDGE('',*,*,#357,.F.);
#208=ORIENTED_EDGE('',*,*,#358,.T.);
#209=ORIENTED_EDGE('',*,*,#359,.F.);
#210=ORIENTED_EDGE('',*,*,#341,.T.);
#211=ORIENTED_EDGE('',*,*,#357,.T.);
#212=ORIENTED_EDGE('',*,*,#351,.T.);
#213=ORIENTED_EDGE('',*,*,#346,.T.);
#214=ORIENTED_EDGE('',*,*,#360,.T.);
#215=ORIENTED_EDGE('',*,*,#359,.T.);
#216=ORIENTED_EDGE('',*,*,#302,.F.);
#217=ORIENTED_EDGE('',*,*,#361,.T.);
#218=ORIENTED_EDGE('',*,*,#354,.T.);
#219=ORIENTED_EDGE('',*,*,#362,.T.);
#220=ORIENTED_EDGE('',*,*,#303,.T.);
#221=ORIENTED_EDGE('',*,*,#319,.T.);
#222=ORIENTED_EDGE('',*,*,#337,.F.);
#223=ORIENTED_EDGE('',*,*,#363,.F.);
#224=ORIENTED_EDGE('',*,*,#305,.T.);
#225=ORIENTED_EDGE('',*,*,#364,.T.);
#226=ORIENTED_EDGE('',*,*,#339,.T.);
#227=ORIENTED_EDGE('',*,*,#365,.T.);
#228=ORIENTED_EDGE('',*,*,#331,.F.);
#229=ORIENTED_EDGE('',*,*,#322,.T.);
#230=ORIENTED_EDGE('',*,*,#343,.T.);
#231=ORIENTED_EDGE('',*,*,#366,.T.);
#232=ORIENTED_EDGE('',*,*,#307,.T.);
#233=ORIENTED_EDGE('',*,*,#324,.T.);
#234=ORIENTED_EDGE('',*,*,#332,.F.);
#235=ORIENTED_EDGE('',*,*,#365,.F.);
#236=ORIENTED_EDGE('',*,*,#309,.T.);
#237=ORIENTED_EDGE('',*,*,#367,.T.);
#238=ORIENTED_EDGE('',*,*,#344,.T.);
#239=ORIENTED_EDGE('',*,*,#368,.T.);
#240=ORIENTED_EDGE('',*,*,#333,.F.);
#241=ORIENTED_EDGE('',*,*,#325,.T.);
#242=ORIENTED_EDGE('',*,*,#348,.T.);
#243=ORIENTED_EDGE('',*,*,#369,.T.);
#244=ORIENTED_EDGE('',*,*,#311,.T.);
#245=ORIENTED_EDGE('',*,*,#327,.T.);
#246=ORIENTED_EDGE('',*,*,#334,.F.);
#247=ORIENTED_EDGE('',*,*,#368,.F.);
#248=ORIENTED_EDGE('',*,*,#313,.T.);
#249=ORIENTED_EDGE('',*,*,#370,.T.);
#250=ORIENTED_EDGE('',*,*,#349,.T.);
#251=ORIENTED_EDGE('',*,*,#371,.T.);
#252=ORIENTED_EDGE('',*,*,#335,.F.);
#253=ORIENTED_EDGE('',*,*,#328,.T.);
#254=ORIENTED_EDGE('',*,*,#353,.T.);
#255=ORIENTED_EDGE('',*,*,#372,.T.);
#256=ORIENTED_EDGE('',*,*,#315,.T.);
#257=ORIENTED_EDGE('',*,*,#330,.T.);
#258=ORIENTED_EDGE('',*,*,#336,.F.);
#259=ORIENTED_EDGE('',*,*,#371,.F.);
#260=ORIENTED_EDGE('',*,*,#317,.T.);
#261=ORIENTED_EDGE('',*,*,#373,.T.);
#262=ORIENTED_EDGE('',*,*,#355,.T.);
#263=ORIENTED_EDGE('',*,*,#363,.T.);
#264=ORIENTED_EDGE('',*,*,#338,.F.);
#265=ORIENTED_EDGE('',*,*,#320,.T.);
#266=ORIENTED_EDGE('',*,*,#360,.F.);
#267=ORIENTED_EDGE('',*,*,#361,.F.);
#268=ORIENTED_EDGE('',*,*,#312,.F.);
#269=ORIENTED_EDGE('',*,*,#369,.F.);
#270=ORIENTED_EDGE('',*,*,#347,.F.);
#271=ORIENTED_EDGE('',*,*,#350,.F.);
#272=ORIENTED_EDGE('',*,*,#370,.F.);
#273=ORIENTED_EDGE('',*,*,#342,.F.);
#274=ORIENTED_EDGE('',*,*,#345,.F.);
#275=ORIENTED_EDGE('',*,*,#367,.F.);
#276=ORIENTED_EDGE('',*,*,#308,.F.);
#277=ORIENTED_EDGE('',*,*,#366,.F.);
#278=ORIENTED_EDGE('',*,*,#304,.F.);
#279=ORIENTED_EDGE('',*,*,#362,.F.);
#280=ORIENTED_EDGE('',*,*,#358,.F.);
#281=ORIENTED_EDGE('',*,*,#340,.F.);
#282=ORIENTED_EDGE('',*,*,#364,.F.);
#283=ORIENTED_EDGE('',*,*,#316,.F.);
#284=ORIENTED_EDGE('',*,*,#372,.F.);
#285=ORIENTED_EDGE('',*,*,#352,.F.);
#286=ORIENTED_EDGE('',*,*,#356,.F.);
#287=ORIENTED_EDGE('',*,*,#373,.F.);
#288=ORIENTED_EDGE('',*,*,#374,.F.);
#289=ORIENTED_EDGE('',*,*,#375,.T.);
#290=ORIENTED_EDGE('',*,*,#376,.F.);
#291=ORIENTED_EDGE('',*,*,#374,.T.);
#292=ORIENTED_EDGE('',*,*,#376,.T.);
#293=ORIENTED_EDGE('',*,*,#377,.F.);
#294=ORIENTED_EDGE('',*,*,#378,.F.);
#295=ORIENTED_EDGE('',*,*,#377,.T.);
#296=ORIENTED_EDGE('',*,*,#379,.F.);
#297=ORIENTED_EDGE('',*,*,#378,.T.);
#298=ORIENTED_EDGE('',*,*,#380,.F.);
#299=ORIENTED_EDGE('',*,*,#379,.T.);
#300=ORIENTED_EDGE('',*,*,#375,.F.);
#301=ORIENTED_EDGE('',*,*,#380,.T.);
#302=EDGE_CURVE('',#381,#381,#437,.T.);
#303=EDGE_CURVE('',#382,#383,#88,.T.);
#304=EDGE_CURVE('',#382,#384,#60,.T.);
#305=EDGE_CURVE('',#385,#384,#89,.F.);
#306=EDGE_CURVE('',#386,#385,#438,.T.);
#307=EDGE_CURVE('',#387,#386,#90,.T.);
#308=EDGE_CURVE('',#387,#388,#61,.T.);
#309=EDGE_CURVE('',#389,#388,#91,.F.);
#310=EDGE_CURVE('',#390,#389,#439,.T.);
#311=EDGE_CURVE('',#391,#390,#92,.T.);
#312=EDGE_CURVE('',#391,#392,#62,.T.);
#313=EDGE_CURVE('',#393,#392,#93,.F.);
#314=EDGE_CURVE('',#394,#393,#440,.T.);
#315=EDGE_CURVE('',#395,#394,#94,.T.);
#316=EDGE_CURVE('',#395,#396,#63,.T.);
#317=EDGE_CURVE('',#397,#396,#95,.F.);
#318=EDGE_CURVE('',#383,#397,#441,.T.);
#319=EDGE_CURVE('',#383,#398,#64,.T.);
#320=EDGE_CURVE('',#399,#397,#65,.T.);
#321=EDGE_CURVE('',#398,#399,#442,.T.);
#322=EDGE_CURVE('',#400,#385,#66,.T.);
#323=EDGE_CURVE('',#401,#400,#443,.T.);
#324=EDGE_CURVE('',#386,#401,#67,.T.);
#325=EDGE_CURVE('',#402,#389,#68,.T.);
#326=EDGE_CURVE('',#403,#402,#444,.T.);
#327=EDGE_CURVE('',#390,#403,#69,.T.);
#328=EDGE_CURVE('',#404,#393,#70,.T.);
#329=EDGE_CURVE('',#405,#404,#445,.T.);
#330=EDGE_CURVE('',#394,#405,#71,.T.);
#331=EDGE_CURVE('',#400,#406,#96,.T.);
#332=EDGE_CURVE('',#406,#401,#97,.T.);
#333=EDGE_CURVE('',#402,#407,#98,.T.);
#334=EDGE_CURVE('',#407,#403,#99,.T.);
#335=EDGE_CURVE('',#404,#408,#100,.T.);
#336=EDGE_CURVE('',#408,#405,#101,.T.);
#337=EDGE_CURVE('',#409,#398,#102,.T.);
#338=EDGE_CURVE('',#399,#409,#103,.T.);
#339=EDGE_CURVE('',#410,#411,#72,.T.);
#340=EDGE_CURVE('',#410,#412,#73,.T.);
#341=EDGE_CURVE('',#413,#412,#446,.T.);
#342=EDGE_CURVE('',#413,#414,#74,.T.);
#343=EDGE_CURVE('',#411,#414,#75,.T.);
#344=EDGE_CURVE('',#415,#416,#76,.T.);
#345=EDGE_CURVE('',#415,#413,#77,.T.);
#346=EDGE_CURVE('',#417,#413,#447,.T.);
#347=EDGE_CURVE('',#417,#418,#78,.T.);
#348=EDGE_CURVE('',#416,#418,#79,.T.);
#349=EDGE_CURVE('',#419,#420,#80,.T.);
#350=EDGE_CURVE('',#419,#417,#81,.T.);
#351=EDGE_CURVE('',#421,#417,#448,.T.);
#352=EDGE_CURVE('',#421,#422,#82,.T.);
#353=EDGE_CURVE('',#420,#422,#83,.T.);
#354=EDGE_CURVE('',#423,#424,#84,.T.);
#355=EDGE_CURVE('',#425,#423,#85,.T.);
#356=EDGE_CURVE('',#425,#421,#86,.T.);
#357=EDGE_CURVE('',#412,#421,#449,.T.);
#358=EDGE_CURVE('',#412,#424,#87,.T.);
#359=EDGE_CURVE('',#426,#426,#450,.T.);
#360=EDGE_CURVE('',#427,#427,#451,.F.);
#361=EDGE_CURVE('',#428,#428,#452,.T.);
#362=EDGE_CURVE('',#424,#382,#104,.T.);
#363=EDGE_CURVE('',#423,#409,#105,.T.);
#364=EDGE_CURVE('',#384,#410,#106,.T.);
#365=EDGE_CURVE('',#411,#406,#107,.T.);
#366=EDGE_CURVE('',#414,#387,#108,.T.);
#367=EDGE_CURVE('',#388,#415,#109,.T.);
#368=EDGE_CURVE('',#416,#407,#110,.T.);
#369=EDGE_CURVE('',#418,#391,#111,.T.);
#370=EDGE_CURVE('',#392,#419,#112,.T.);
#371=EDGE_CURVE('',#420,#408,#113,.T.);
#372=EDGE_CURVE('',#422,#395,#114,.T.);
#373=EDGE_CURVE('',#396,#425,#115,.T.);
#374=EDGE_CURVE('',#429,#429,#453,.T.);
#375=EDGE_CURVE('',#430,#430,#454,.T.);
#376=EDGE_CURVE('',#431,#431,#455,.T.);
#377=EDGE_CURVE('',#433,#433,#456,.T.);
#378=EDGE_CURVE('',#434,#434,#457,.T.);
#379=EDGE_CURVE('',#435,#435,#458,.T.);
#380=EDGE_CURVE('',#436,#436,#459,.T.);
#381=VERTEX_POINT('',#847);
#382=VERTEX_POINT('',#849);
#383=VERTEX_POINT('',#850);
#384=VERTEX_POINT('',#856);
#385=VERTEX_POINT('',#858);
#386=VERTEX_POINT('',#860);
#387=VERTEX_POINT('',#862);
#388=VERTEX_POINT('',#868);
#389=VERTEX_POINT('',#870);
#390=VERTEX_POINT('',#872);
#391=VERTEX_POINT('',#874);
#392=VERTEX_POINT('',#880);
#393=VERTEX_POINT('',#882);
#394=VERTEX_POINT('',#884);
#395=VERTEX_POINT('',#886);
#396=VERTEX_POINT('',#892);
#397=VERTEX_POINT('',#894);
#398=VERTEX_POINT('',#901);
#399=VERTEX_POINT('',#906);
#400=VERTEX_POINT('',#913);
#401=VERTEX_POINT('',#915);
#402=VERTEX_POINT('',#925);
#403=VERTEX_POINT('',#927);
#404=VERTEX_POINT('',#937);
#405=VERTEX_POINT('',#939);
#406=VERTEX_POINT('',#946);
#407=VERTEX_POINT('',#950);
#408=VERTEX_POINT('',#954);
#409=VERTEX_POINT('',#958);
#410=VERTEX_POINT('',#966);
#411=VERTEX_POINT('',#967);
#412=VERTEX_POINT('',#972);
#413=VERTEX_POINT('',#974);
#414=VERTEX_POINT('',#979);
#415=VERTEX_POINT('',#991);
#416=VERTEX_POINT('',#992);
#417=VERTEX_POINT('',#998);
#418=VERTEX_POINT('',#1003);
#419=VERTEX_POINT('',#1015);
#420=VERTEX_POINT('',#1016);
#421=VERTEX_POINT('',#1022);
#422=VERTEX_POINT('',#1027);
#423=VERTEX_POINT('',#1039);
#424=VERTEX_POINT('',#1040);
#425=VERTEX_POINT('',#1046);
#426=VERTEX_POINT('',#1058);
#427=VERTEX_POINT('',#1061);
#428=VERTEX_POINT('',#1064);
#429=VERTEX_POINT('',#1093);
#430=VERTEX_POINT('',#1095);
#431=VERTEX_POINT('',#1098);
#432=VERTEX_POINT('',#1100);
#433=VERTEX_POINT('',#1103);
#434=VERTEX_POINT('',#1106);
#435=VERTEX_POINT('',#1109);
#436=VERTEX_POINT('',#1112);
#437=CIRCLE('',#629,1.725);
#438=CIRCLE('',#630,1.725);
#439=CIRCLE('',#631,1.725);
#440=CIRCLE('',#632,1.725);
#441=CIRCLE('',#633,1.725);
#442=CIRCLE('',#635,1.525);
#443=CIRCLE('',#637,1.525);
#444=CIRCLE('',#639,1.525);
#445=CIRCLE('',#641,1.525);
#446=CIRCLE('',#647,0.949999999999999);
#447=CIRCLE('',#649,0.949999999999999);
#448=CIRCLE('',#651,0.949999999999999);
#449=CIRCLE('',#653,0.949999999999999);
#450=CIRCLE('',#655,0.95);
#451=CIRCLE('',#657,2.01132486540519);
#452=CIRCLE('',#659,2.3);
#453=CIRCLE('',#675,0.945);
#454=CIRCLE('',#676,2.21132486540519);
#455=CIRCLE('',#678,0.944999999999999);
#456=CIRCLE('',#681,2.57926829268293);
#457=CIRCLE('',#683,3.15);
#458=CIRCLE('',#685,3.15);
#459=CIRCLE('',#687,2.5);
#460=EDGE_LOOP('',(#144));
#461=EDGE_LOOP('',(#145,#146,#147,#148,#149,#150,#151,#152,#153,#154,#155,
#156,#157,#158,#159,#160));
#462=EDGE_LOOP('',(#161,#162,#163,#164));
#463=EDGE_LOOP('',(#165,#166,#167,#168));
#464=EDGE_LOOP('',(#169,#170,#171,#172));
#465=EDGE_LOOP('',(#173,#174,#175,#176));
#466=EDGE_LOOP('',(#177,#178,#179));
#467=EDGE_LOOP('',(#180,#181,#182));
#468=EDGE_LOOP('',(#183,#184,#185));
#469=EDGE_LOOP('',(#186,#187,#188));
#470=EDGE_LOOP('',(#189,#190,#191,#192,#193));
#471=EDGE_LOOP('',(#194,#195,#196,#197,#198));
#472=EDGE_LOOP('',(#199,#200,#201,#202,#203));
#473=EDGE_LOOP('',(#204,#205,#206,#207,#208));
#474=EDGE_LOOP('',(#209));
#475=EDGE_LOOP('',(#210,#211,#212,#213));
#476=EDGE_LOOP('',(#214));
#477=EDGE_LOOP('',(#215));
#478=EDGE_LOOP('',(#216));
#479=EDGE_LOOP('',(#217));
#480=EDGE_LOOP('',(#218,#219,#220,#221,#222,#223));
#481=EDGE_LOOP('',(#224,#225,#226,#227,#228,#229));
#482=EDGE_LOOP('',(#230,#231,#232,#233,#234,#235));
#483=EDGE_LOOP('',(#236,#237,#238,#239,#240,#241));
#484=EDGE_LOOP('',(#242,#243,#244,#245,#246,#247));
#485=EDGE_LOOP('',(#248,#249,#250,#251,#252,#253));
#486=EDGE_LOOP('',(#254,#255,#256,#257,#258,#259));
#487=EDGE_LOOP('',(#260,#261,#262,#263,#264,#265));
#488=EDGE_LOOP('',(#266));
#489=EDGE_LOOP('',(#267));
#490=EDGE_LOOP('',(#268,#269,#270,#271,#272));
#491=EDGE_LOOP('',(#273,#274,#275,#276,#277));
#492=EDGE_LOOP('',(#278,#279,#280,#281,#282));
#493=EDGE_LOOP('',(#283,#284,#285,#286,#287));
#494=EDGE_LOOP('',(#288));
#495=EDGE_LOOP('',(#289));
#496=EDGE_LOOP('',(#290));
#497=EDGE_LOOP('',(#291));
#498=EDGE_LOOP('',(#292));
#499=EDGE_LOOP('',(#293));
#500=EDGE_LOOP('',(#294));
#501=EDGE_LOOP('',(#295));
#502=EDGE_LOOP('',(#296));
#503=EDGE_LOOP('',(#297));
#504=EDGE_LOOP('',(#298));
#505=EDGE_LOOP('',(#299));
#506=EDGE_LOOP('',(#300));
#507=EDGE_LOOP('',(#301));
#508=FACE_BOUND('',#460,.T.);
#509=FACE_BOUND('',#461,.T.);
#510=FACE_BOUND('',#462,.T.);
#511=FACE_BOUND('',#463,.T.);
#512=FACE_BOUND('',#464,.T.);
#513=FACE_BOUND('',#465,.T.);
#514=FACE_BOUND('',#466,.T.);
#515=FACE_BOUND('',#467,.T.);
#516=FACE_BOUND('',#468,.T.);
#517=FACE_BOUND('',#469,.T.);
#518=FACE_BOUND('',#470,.T.);
#519=FACE_BOUND('',#471,.T.);
#520=FACE_BOUND('',#472,.T.);
#521=FACE_BOUND('',#473,.T.);
#522=FACE_BOUND('',#474,.T.);
#523=FACE_BOUND('',#475,.T.);
#524=FACE_BOUND('',#476,.T.);
#525=FACE_BOUND('',#477,.T.);
#526=FACE_BOUND('',#478,.T.);
#527=FACE_BOUND('',#479,.T.);
#528=FACE_BOUND('',#480,.T.);
#529=FACE_BOUND('',#481,.T.);
#530=FACE_BOUND('',#482,.T.);
#531=FACE_BOUND('',#483,.T.);
#532=FACE_BOUND('',#484,.T.);
#533=FACE_BOUND('',#485,.T.);
#534=FACE_BOUND('',#486,.T.);
#535=FACE_BOUND('',#487,.T.);
#536=FACE_BOUND('',#488,.T.);
#537=FACE_BOUND('',#489,.T.);
#538=FACE_BOUND('',#490,.T.);
#539=FACE_BOUND('',#491,.T.);
#540=FACE_BOUND('',#492,.T.);
#541=FACE_BOUND('',#493,.T.);
#542=FACE_BOUND('',#494,.T.);
#543=FACE_BOUND('',#495,.T.);
#544=FACE_BOUND('',#496,.T.);
#545=FACE_BOUND('',#497,.T.);
#546=FACE_BOUND('',#19,.T.);
#547=FACE_BOUND('',#498,.T.);
#548=FACE_BOUND('',#499,.T.);
#549=FACE_BOUND('',#500,.T.);
#550=FACE_BOUND('',#501,.T.);
#551=FACE_BOUND('',#502,.T.);
#552=FACE_BOUND('',#503,.T.);
#553=FACE_BOUND('',#504,.T.);
#554=FACE_BOUND('',#505,.T.);
#555=FACE_BOUND('',#506,.T.);
#556=FACE_BOUND('',#507,.T.);
#557=CYLINDRICAL_SURFACE('',#628,1.725);
#558=CYLINDRICAL_SURFACE('',#654,0.95);
#559=CYLINDRICAL_SURFACE('',#669,0.25);
#560=CYLINDRICAL_SURFACE('',#670,0.25);
#561=CYLINDRICAL_SURFACE('',#671,0.25);
#562=CYLINDRICAL_SURFACE('',#672,0.25);
#563=CYLINDRICAL_SURFACE('',#677,0.944999999999999);
#564=CYLINDRICAL_SURFACE('',#684,3.15);
#565=ADVANCED_FACE('',(#508,#509),#557,.T.);
#566=ADVANCED_FACE('',(#510),#55,.T.);
#567=ADVANCED_FACE('',(#511),#56,.T.);
#568=ADVANCED_FACE('',(#512),#57,.T.);
#569=ADVANCED_FACE('',(#513),#58,.T.);
#570=ADVANCED_FACE('',(#514),#39,.F.);
#571=ADVANCED_FACE('',(#515),#40,.F.);
#572=ADVANCED_FACE('',(#516),#41,.F.);
#573=ADVANCED_FACE('',(#517),#42,.F.);
#574=ADVANCED_FACE('',(#518),#34,.T.);
#575=ADVANCED_FACE('',(#519),#35,.T.);
#576=ADVANCED_FACE('',(#520),#36,.T.);
#577=ADVANCED_FACE('',(#521),#37,.T.);
#578=ADVANCED_FACE('',(#522,#523),#558,.F.);
#579=ADVANCED_FACE('',(#524,#525),#43,.F.);
#580=ADVANCED_FACE('',(#526,#527),#44,.F.);
#581=ADVANCED_FACE('',(#528),#45,.T.);
#582=ADVANCED_FACE('',(#529),#46,.T.);
#583=ADVANCED_FACE('',(#530),#47,.T.);
#584=ADVANCED_FACE('',(#531),#48,.T.);
#585=ADVANCED_FACE('',(#532),#49,.T.);
#586=ADVANCED_FACE('',(#533),#50,.T.);
#587=ADVANCED_FACE('',(#534),#51,.T.);
#588=ADVANCED_FACE('',(#535),#52,.T.);
#589=ADVANCED_FACE('',(#536,#537),#32,.T.);
#590=ADVANCED_FACE('',(#538),#559,.F.);
#591=ADVANCED_FACE('',(#539),#560,.F.);
#592=ADVANCED_FACE('',(#540),#561,.F.);
#593=ADVANCED_FACE('',(#541),#562,.F.);
#594=ADVANCED_FACE('',(#542,#543),#53,.F.);
#595=ADVANCED_FACE('',(#544,#545),#563,.T.);
#596=ADVANCED_FACE('',(#546,#547),#38,.F.);
#597=ADVANCED_FACE('',(#548),#18,.T.);
#598=ADVANCED_FACE('',(#549,#550),#59,.T.);
#599=ADVANCED_FACE('',(#551,#552),#564,.T.);
#600=ADVANCED_FACE('',(#553,#554),#54,.F.);
#601=ADVANCED_FACE('',(#555,#556),#33,.F.);
#602=CLOSED_SHELL('',(#565,#566,#567,#568,#569,#570,#571,#572,#573,#574,
#575,#576,#577,#578,#579,#580,#581,#582,#583,#584,#585,#586,#587,#588,#589,
#590,#591,#592,#593));
#603=CLOSED_SHELL('',(#594,#595,#596,#597,#598,#599,#600,#601));
#604=STYLED_ITEM('',(#606),#619);
#605=STYLED_ITEM('',(#607),#620);
#606=PRESENTATION_STYLE_ASSIGNMENT((#608));
#607=PRESENTATION_STYLE_ASSIGNMENT((#609));
#608=SURFACE_STYLE_USAGE(.BOTH.,#610);
#609=SURFACE_STYLE_USAGE(.BOTH.,#611);
#610=SURFACE_SIDE_STYLE('',(#612));
#611=SURFACE_SIDE_STYLE('',(#613));
#612=SURFACE_STYLE_FILL_AREA(#614);
#613=SURFACE_STYLE_FILL_AREA(#615);
#614=FILL_AREA_STYLE('',(#616));
#615=FILL_AREA_STYLE('',(#617));
#616=FILL_AREA_STYLE_COLOUR('',#618);
#617=FILL_AREA_STYLE_COLOUR('',#618);
#618=COLOUR_RGB('',0.200000002980232,0.200000002980232,0.200000002980232);
#619=MANIFOLD_SOLID_BREP('',#602);
#620=MANIFOLD_SOLID_BREP('',#603);
#621=SHAPE_DEFINITION_REPRESENTATION(#1126,#624);
#622=SHAPE_DEFINITION_REPRESENTATION(#1125,#625);
#623=SHAPE_DEFINITION_REPRESENTATION(#1128,#626);
#624=SHAPE_REPRESENTATION('700973800UV_body',(#627),#1117);
#625=SHAPE_REPRESENTATION('700973800UV',(#627,#673,#689),#1116);
#626=SHAPE_REPRESENTATION('700973800UV_pin',(#627),#1118);
#627=AXIS2_PLACEMENT_3D('',#844,#690,#691);
#628=AXIS2_PLACEMENT_3D('',#845,#692,#693);
#629=AXIS2_PLACEMENT_3D('',#846,#694,#695);
#630=AXIS2_PLACEMENT_3D('',#859,#698,#699);
#631=AXIS2_PLACEMENT_3D('',#871,#702,#703);
#632=AXIS2_PLACEMENT_3D('',#883,#706,#707);
#633=AXIS2_PLACEMENT_3D('',#895,#710,#711);
#634=AXIS2_PLACEMENT_3D('',#896,#712,#713);
#635=AXIS2_PLACEMENT_3D('',#907,#714,#715);
#636=AXIS2_PLACEMENT_3D('',#908,#716,#717);
#637=AXIS2_PLACEMENT_3D('',#914,#718,#719);
#638=AXIS2_PLACEMENT_3D('',#920,#720,#721);
#639=AXIS2_PLACEMENT_3D('',#926,#722,#723);
#640=AXIS2_PLACEMENT_3D('',#932,#724,#725);
#641=AXIS2_PLACEMENT_3D('',#938,#726,#727);
#642=AXIS2_PLACEMENT_3D('',#944,#728,#729);
#643=AXIS2_PLACEMENT_3D('',#948,#732,#733);
#644=AXIS2_PLACEMENT_3D('',#952,#736,#737);
#645=AXIS2_PLACEMENT_3D('',#956,#740,#741);
#646=AXIS2_PLACEMENT_3D('',#960,#744,#745);
#647=AXIS2_PLACEMENT_3D('',#973,#746,#747);
#648=AXIS2_PLACEMENT_3D('',#985,#748,#749);
#649=AXIS2_PLACEMENT_3D('',#997,#750,#751);
#650=AXIS2_PLACEMENT_3D('',#1009,#752,#753);
#651=AXIS2_PLACEMENT_3D('',#1021,#754,#755);
#652=AXIS2_PLACEMENT_3D('',#1033,#756,#757);
#653=AXIS2_PLACEMENT_3D('',#1051,#758,#759);
#654=AXIS2_PLACEMENT_3D('',#1056,#760,#761);
#655=AXIS2_PLACEMENT_3D('',#1057,#762,#763);
#656=AXIS2_PLACEMENT_3D('',#1059,#764,#765);
#657=AXIS2_PLACEMENT_3D('',#1060,#766,#767);
#658=AXIS2_PLACEMENT_3D('',#1062,#768,#769);
#659=AXIS2_PLACEMENT_3D('',#1063,#770,#771);
#660=AXIS2_PLACEMENT_3D('',#1065,#772,#773);
#661=AXIS2_PLACEMENT_3D('',#1068,#776,#777);
#662=AXIS2_PLACEMENT_3D('',#1071,#780,#781);
#663=AXIS2_PLACEMENT_3D('',#1073,#783,#784);
#664=AXIS2_PLACEMENT_3D('',#1076,#787,#788);
#665=AXIS2_PLACEMENT_3D('',#1078,#790,#791);
#666=AXIS2_PLACEMENT_3D('',#1081,#794,#795);
#667=AXIS2_PLACEMENT_3D('',#1083,#797,#798);
#668=AXIS2_PLACEMENT_3D('',#1085,#800,#801);
#669=AXIS2_PLACEMENT_3D('',#1086,#802,#803);
#670=AXIS2_PLACEMENT_3D('',#1087,#804,#805);
#671=AXIS2_PLACEMENT_3D('',#1088,#806,#807);
#672=AXIS2_PLACEMENT_3D('',#1089,#808,#809);
#673=AXIS2_PLACEMENT_3D('',#1090,#810,#811);
#674=AXIS2_PLACEMENT_3D('',#1091,#812,#813);
#675=AXIS2_PLACEMENT_3D('',#1092,#814,#815);
#676=AXIS2_PLACEMENT_3D('',#1094,#816,#817);
#677=AXIS2_PLACEMENT_3D('',#1096,#818,#819);
#678=AXIS2_PLACEMENT_3D('',#1097,#820,#821);
#679=AXIS2_PLACEMENT_3D('',#1099,#822,#823);
#680=AXIS2_PLACEMENT_3D('',#1101,#824,#825);
#681=AXIS2_PLACEMENT_3D('',#1102,#826,#827);
#682=AXIS2_PLACEMENT_3D('',#1104,#828,#829);
#683=AXIS2_PLACEMENT_3D('',#1105,#830,#831);
#684=AXIS2_PLACEMENT_3D('',#1107,#832,#833);
#685=AXIS2_PLACEMENT_3D('',#1108,#834,#835);
#686=AXIS2_PLACEMENT_3D('',#1110,#836,#837);
#687=AXIS2_PLACEMENT_3D('',#1111,#838,#839);
#688=AXIS2_PLACEMENT_3D('',#1113,#840,#841);
#689=AXIS2_PLACEMENT_3D('',#1114,#842,#843);
#690=DIRECTION('',(0.,0.,1.));
#691=DIRECTION('',(1.,0.,0.));
#692=DIRECTION('',(0.,0.,-1.));
#693=DIRECTION('',(-1.,0.,0.));
#694=DIRECTION('',(0.,0.,-1.));
#695=DIRECTION('',(-1.,0.,0.));
#696=DIRECTION('',(0.,0.,-1.));
#697=DIRECTION('',(0.,0.,-1.));
#698=DIRECTION('',(0.,0.,-1.));
#699=DIRECTION('',(-1.,0.,0.));
#700=DIRECTION('',(0.,0.,-1.));
#701=DIRECTION('',(0.,0.,-1.));
#702=DIRECTION('',(0.,0.,-1.));
#703=DIRECTION('',(-1.,0.,0.));
#704=DIRECTION('',(0.,0.,-1.));
#705=DIRECTION('',(0.,0.,-1.));
#706=DIRECTION('',(0.,0.,-1.));
#707=DIRECTION('',(-1.,0.,0.));
#708=DIRECTION('',(0.,0.,-1.));
#709=DIRECTION('',(0.,0.,-1.));
#710=DIRECTION('',(0.,0.,-1.));
#711=DIRECTION('',(-1.,0.,0.));
#712=DIRECTION('',(0.,0.,-1.));
#713=DIRECTION('',(-1.,0.,0.));
#714=DIRECTION('',(0.,0.,-1.));
#715=DIRECTION('',(-1.,0.,0.));
#716=DIRECTION('',(0.,0.,-1.));
#717=DIRECTION('',(-1.,0.,0.));
#718=DIRECTION('',(0.,0.,-1.));
#719=DIRECTION('',(-1.,0.,0.));
#720=DIRECTION('',(0.,0.,-1.));
#721=DIRECTION('',(-1.,0.,0.));
#722=DIRECTION('',(0.,0.,-1.));
#723=DIRECTION('',(-1.,0.,0.));
#724=DIRECTION('',(0.,0.,-1.));
#725=DIRECTION('',(-1.,0.,0.));
#726=DIRECTION('',(0.,0.,-1.));
#727=DIRECTION('',(-1.,0.,0.));
#728=DIRECTION('',(0.,0.,1.));
#729=DIRECTION('',(1.,0.,0.));
#730=DIRECTION('',(0.,-1.,0.));
#731=DIRECTION('',(-1.,0.,0.));
#732=DIRECTION('',(0.,0.,1.));
#733=DIRECTION('',(1.,0.,0.));
#734=DIRECTION('',(1.,6.50521303491303E-16,0.));
#735=DIRECTION('',(-8.51873135524324E-17,-1.,0.));
#736=DIRECTION('',(0.,0.,1.));
#737=DIRECTION('',(1.,0.,0.));
#738=DIRECTION('',(6.19544098563145E-17,1.,0.));
#739=DIRECTION('',(1.,-8.98338942916561E-16,0.));
#740=DIRECTION('',(0.,0.,1.));
#741=DIRECTION('',(1.,0.,0.));
#742=DIRECTION('',(-3.4074925420973E-16,1.,0.));
#743=DIRECTION('',(-1.,-3.09772049281573E-17,0.));
#744=DIRECTION('',(0.,0.,-1.));
#745=DIRECTION('',(-1.,0.,0.));
#746=DIRECTION('',(0.,0.,-1.));
#747=DIRECTION('',(-1.,0.,0.));
#748=DIRECTION('',(0.,0.,-1.));
#749=DIRECTION('',(-1.,0.,0.));
#750=DIRECTION('',(0.,0.,-1.));
#751=DIRECTION('',(-1.,0.,0.));
#752=DIRECTION('',(0.,0.,-1.));
#753=DIRECTION('',(-1.,0.,0.));
#754=DIRECTION('',(0.,0.,-1.));
#755=DIRECTION('',(-1.,0.,0.));
#756=DIRECTION('',(0.,0.,-1.));
#757=DIRECTION('',(-1.,0.,0.));
#758=DIRECTION('',(0.,0.,-1.));
#759=DIRECTION('',(-1.,0.,0.));
#760=DIRECTION('',(0.,0.,-1.));
#761=DIRECTION('',(-1.,0.,0.));
#762=DIRECTION('',(0.,0.,-1.));
#763=DIRECTION('',(-1.,0.,0.));
#764=DIRECTION('',(0.,0.,-1.));
#765=DIRECTION('',(-1.,0.,0.));
#766=DIRECTION('',(0.,0.,-1.));
#767=DIRECTION('',(-1.,0.,0.));
#768=DIRECTION('',(0.,0.,1.));
#769=DIRECTION('',(1.,0.,0.));
#770=DIRECTION('',(0.,0.,-1.));
#771=DIRECTION('',(-1.,0.,0.));
#772=DIRECTION('',(-1.,-3.4074925420973E-16,0.));
#773=DIRECTION('',(3.4074925420973E-16,-1.,0.));
#774=DIRECTION('',(-3.4074925420973E-16,1.,0.));
#775=DIRECTION('',(0.,0.,-1.));
#776=DIRECTION('',(1.,0.,0.));
#777=DIRECTION('',(0.,0.,-1.));
#778=DIRECTION('',(0.,-1.,0.));
#779=DIRECTION('',(0.,0.,-1.));
#780=DIRECTION('',(0.,-1.,0.));
#781=DIRECTION('',(0.,0.,-1.));
#782=DIRECTION('',(-1.,0.,0.));
#783=DIRECTION('',(-6.50521303491303E-16,1.,0.));
#784=DIRECTION('',(-1.,-6.50521303491303E-16,0.));
#785=DIRECTION('',(1.,6.50521303491303E-16,0.));
#786=DIRECTION('',(0.,0.,-1.));
#787=DIRECTION('',(1.,-8.51873135524324E-17,0.));
#788=DIRECTION('',(8.51873135524324E-17,1.,0.));
#789=DIRECTION('',(-8.51873135524324E-17,-1.,0.));
#790=DIRECTION('',(-1.,6.19544098563145E-17,0.));
#791=DIRECTION('',(-6.19544098563145E-17,-1.,0.));
#792=DIRECTION('',(6.19544098563145E-17,1.,0.));
#793=DIRECTION('',(0.,0.,-1.));
#794=DIRECTION('',(8.98338942916561E-16,1.,0.));
#795=DIRECTION('',(-1.,8.98338942916561E-16,0.));
#796=DIRECTION('',(1.,-8.98338942916561E-16,0.));
#797=DIRECTION('',(3.09772049281573E-17,-1.,0.));
#798=DIRECTION('',(1.,3.09772049281573E-17,0.));
#799=DIRECTION('',(-1.,-3.09772049281573E-17,0.));
#800=DIRECTION('',(0.,0.,-1.));
#801=DIRECTION('',(-1.,0.,0.));
#802=DIRECTION('',(6.19544098563145E-17,1.,0.));
#803=DIRECTION('',(-1.,6.19544098563145E-17,0.));
#804=DIRECTION('',(-1.,0.,0.));
#805=DIRECTION('',(0.,0.,1.));
#806=DIRECTION('',(0.,-1.,0.));
#807=DIRECTION('',(0.,0.,-1.));
#808=DIRECTION('',(-1.,-3.09772049281573E-17,0.));
#809=DIRECTION('',(3.09772049281573E-17,-1.,0.));
#810=DIRECTION('',(0.,0.,1.));
#811=DIRECTION('',(1.,0.,0.));
#812=DIRECTION('',(0.,0.,1.));
#813=DIRECTION('',(1.,0.,0.));
#814=DIRECTION('',(0.,0.,-1.));
#815=DIRECTION('',(-1.,0.,0.));
#816=DIRECTION('',(0.,0.,-1.));
#817=DIRECTION('',(-1.,0.,0.));
#818=DIRECTION('',(0.,0.,-1.));
#819=DIRECTION('',(-1.,0.,0.));
#820=DIRECTION('',(0.,0.,-1.));
#821=DIRECTION('',(-1.,0.,0.));
#822=DIRECTION('',(0.,0.,-1.));
#823=DIRECTION('',(-1.,0.,0.));
#824=DIRECTION('',(0.,0.,-1.));
#825=DIRECTION('',(-1.,0.,0.));
#826=DIRECTION('',(0.,0.,-1.));
#827=DIRECTION('',(-1.,0.,0.));
#828=DIRECTION('',(0.,0.,-1.));
#829=DIRECTION('',(-1.,0.,0.));
#830=DIRECTION('',(0.,0.,-1.));
#831=DIRECTION('',(-1.,0.,0.));
#832=DIRECTION('',(0.,0.,-1.));
#833=DIRECTION('',(-1.,0.,0.));
#834=DIRECTION('',(0.,0.,-1.));
#835=DIRECTION('',(-1.,0.,0.));
#836=DIRECTION('',(0.,0.,1.));
#837=DIRECTION('',(1.,0.,0.));
#838=DIRECTION('',(0.,0.,-1.));
#839=DIRECTION('',(-1.,0.,0.));
#840=DIRECTION('',(0.,0.,-1.));
#841=DIRECTION('',(-1.,0.,0.));
#842=DIRECTION('',(0.,0.,1.));
#843=DIRECTION('',(-1.,0.,0.));
#844=CARTESIAN_POINT('',(0.,0.,0.));
#845=CARTESIAN_POINT('',(0.,0.,-9.5));
#846=CARTESIAN_POINT('',(0.,0.,-0.5));
#847=CARTESIAN_POINT('',(-1.725,0.,-0.5));
#848=CARTESIAN_POINT('',(0.25,1.70678791886983,-9.5));
#849=CARTESIAN_POINT('',(0.25,1.70678791886983,-6.25));
#850=CARTESIAN_POINT('',(0.25,1.70678791886983,-9.3));
#851=CARTESIAN_POINT('',(0.25,1.70678791886983,-6.25));
#852=CARTESIAN_POINT('',(0.25,1.70678791886983,-6.11775709612377));
#853=CARTESIAN_POINT('',(-5.536016231154E-6,1.74321208112573,-5.88224101610448));
#854=CARTESIAN_POINT('',(-0.249999999999999,1.70678791886983,-6.11776087172851));
#855=CARTESIAN_POINT('',(-0.25,1.70678791886983,-6.25));
#856=CARTESIAN_POINT('',(-0.25,1.70678791886983,-6.25));
#857=CARTESIAN_POINT('',(-0.25,1.70678791886983,-9.5));
#858=CARTESIAN_POINT('',(-0.25,1.70678791887998,-9.29999999999845));
#859=CARTESIAN_POINT('',(0.,0.,-9.3));
#860=CARTESIAN_POINT('',(-1.70678791886983,0.25,-9.3));
#861=CARTESIAN_POINT('',(-1.70678791886983,0.25,-9.5));
#862=CARTESIAN_POINT('',(-1.70678791886983,0.25,-6.25));
#863=CARTESIAN_POINT('',(-1.70678791886983,0.25,-6.25));
#864=CARTESIAN_POINT('',(-1.70678791886983,0.25,-6.11775709612377));
#865=CARTESIAN_POINT('',(-1.74321208112573,-5.53601564901875E-6,-5.88224101610448));
#866=CARTESIAN_POINT('',(-1.70678791886983,-0.25,-6.11776087172851));
#867=CARTESIAN_POINT('',(-1.70678791886983,-0.250000000000001,-6.25));
#868=CARTESIAN_POINT('',(-1.70678791886983,-0.250000000000001,-6.25));
#869=CARTESIAN_POINT('',(-1.70678791886983,-0.250000000000001,-9.5));
#870=CARTESIAN_POINT('',(-1.70678791888674,-0.250000000000001,-9.2999999999973));
#871=CARTESIAN_POINT('',(0.,0.,-9.3));
#872=CARTESIAN_POINT('',(-0.25,-1.70678791886983,-9.3));
#873=CARTESIAN_POINT('',(-0.25,-1.70678791886983,-9.5));
#874=CARTESIAN_POINT('',(-0.25,-1.70678791886983,-6.25));
#875=CARTESIAN_POINT('',(-0.25,-1.70678791886983,-6.25));
#876=CARTESIAN_POINT('',(-0.25,-1.70678791886983,-6.11775709612377));
#877=CARTESIAN_POINT('',(5.53601623250926E-6,-1.74321208112573,-5.88224101610448));
#878=CARTESIAN_POINT('',(0.25,-1.70678791886983,-6.11776087172851));
#879=CARTESIAN_POINT('',(0.250000000000001,-1.70678791886983,-6.25));
#880=CARTESIAN_POINT('',(0.250000000000001,-1.70678791886983,-6.25));
#881=CARTESIAN_POINT('',(0.250000000000001,-1.70678791886983,-9.5));
#882=CARTESIAN_POINT('',(0.250000000000001,-1.70678791888674,-9.2999999999973));
#883=CARTESIAN_POINT('',(0.,0.,-9.3));
#884=CARTESIAN_POINT('',(1.70678791886983,-0.250000000000001,-9.3));
#885=CARTESIAN_POINT('',(1.70678791886983,-0.250000000000001,-9.5));
#886=CARTESIAN_POINT('',(1.70678791886983,-0.250000000000001,-6.25));
#887=CARTESIAN_POINT('',(1.70678791886983,-0.250000000000001,-6.25));
#888=CARTESIAN_POINT('',(1.70678791886983,-0.250000000000001,-6.11775709612377));
#889=CARTESIAN_POINT('',(1.74321208112573,5.53601623137084E-6,-5.88224101610448));
#890=CARTESIAN_POINT('',(1.70678791886983,0.249999999999999,-6.11776087172851));
#891=CARTESIAN_POINT('',(1.70678791886983,0.25,-6.25));
#892=CARTESIAN_POINT('',(1.70678791886983,0.25,-6.25));
#893=CARTESIAN_POINT('',(1.70678791886983,0.25,-9.5));
#894=CARTESIAN_POINT('',(1.70678791887998,0.25,-9.29999999999845));
#895=CARTESIAN_POINT('',(0.,0.,-9.3));
#896=CARTESIAN_POINT('',(0.,0.,-9.3));
#897=CARTESIAN_POINT('',(0.25,1.70678791886983,-9.3));
#898=CARTESIAN_POINT('',(0.25,1.70678791886983,-9.40637075795513));
#899=CARTESIAN_POINT('',(0.25,1.60944626093894,-9.50000000000001));
#900=CARTESIAN_POINT('',(0.25,1.50436863833304,-9.50000000000001));
#901=CARTESIAN_POINT('',(0.25,1.50436863833304,-9.5));
#902=CARTESIAN_POINT('',(1.50436863833304,0.25,-9.5));
#903=CARTESIAN_POINT('',(1.61068567199002,0.25,-9.5));
#904=CARTESIAN_POINT('',(1.70678791887086,0.25,-9.40496641355404));
#905=CARTESIAN_POINT('',(1.70678791886984,0.25,-9.29999999999808));
#906=CARTESIAN_POINT('',(1.50436863833304,0.25,-9.5));
#907=CARTESIAN_POINT('',(0.,0.,-9.5));
#908=CARTESIAN_POINT('',(0.,0.,-9.3));
#909=CARTESIAN_POINT('',(-0.25,1.50436863833304,-9.5));
#910=CARTESIAN_POINT('',(-0.25,1.61068567199002,-9.5));
#911=CARTESIAN_POINT('',(-0.25,1.70678791887086,-9.40496641355404));
#912=CARTESIAN_POINT('',(-0.25,1.70678791886984,-9.29999999999808));
#913=CARTESIAN_POINT('',(-0.25,1.50436863833304,-9.5));
#914=CARTESIAN_POINT('',(0.,0.,-9.5));
#915=CARTESIAN_POINT('',(-1.50436863833304,0.25,-9.5));
#916=CARTESIAN_POINT('',(-1.70678791887455,0.25,-9.3000000000008));
#917=CARTESIAN_POINT('',(-1.70678791887411,0.25,-9.40629034900251));
#918=CARTESIAN_POINT('',(-1.61023783795766,0.25,-9.5));
#919=CARTESIAN_POINT('',(-1.50436863833304,0.25,-9.5));
#920=CARTESIAN_POINT('',(0.,0.,-9.3));
#921=CARTESIAN_POINT('',(-1.50436863833304,-0.250000000000001,-9.50000000000001));
#922=CARTESIAN_POINT('',(-1.60919573780228,-0.250000000000001,-9.50000000000001));
#923=CARTESIAN_POINT('',(-1.70678791887154,-0.250000000000001,-9.40483917585133));
#924=CARTESIAN_POINT('',(-1.70678791886984,-0.250000000000001,-9.2999999999968));
#925=CARTESIAN_POINT('',(-1.50436863833304,-0.250000000000001,-9.5));
#926=CARTESIAN_POINT('',(0.,0.,-9.5));
#927=CARTESIAN_POINT('',(-0.25,-1.50436863833304,-9.5));
#928=CARTESIAN_POINT('',(-0.25,-1.70678791887455,-9.3000000000008));
#929=CARTESIAN_POINT('',(-0.25,-1.70678791887411,-9.40629034900251));
#930=CARTESIAN_POINT('',(-0.25,-1.61023783795766,-9.5));
#931=CARTESIAN_POINT('',(-0.25,-1.50436863833304,-9.5));
#932=CARTESIAN_POINT('',(0.,0.,-9.3));
#933=CARTESIAN_POINT('',(0.250000000000001,-1.50436863833304,-9.50000000000001));
#934=CARTESIAN_POINT('',(0.250000000000001,-1.60919573780228,-9.50000000000001));
#935=CARTESIAN_POINT('',(0.250000000000001,-1.70678791887154,-9.40483917585133));
#936=CARTESIAN_POINT('',(0.250000000000001,-1.70678791886984,-9.2999999999968));
#937=CARTESIAN_POINT('',(0.250000000000001,-1.50436863833304,-9.5));
#938=CARTESIAN_POINT('',(0.,0.,-9.5));
#939=CARTESIAN_POINT('',(1.50436863833304,-0.250000000000001,-9.5));
#940=CARTESIAN_POINT('',(1.70678791886983,-0.250000000000001,-9.3));
#941=CARTESIAN_POINT('',(1.70678791886983,-0.250000000000001,-9.40637075795514));
#942=CARTESIAN_POINT('',(1.60944626093894,-0.250000000000001,-9.50000000000001));
#943=CARTESIAN_POINT('',(1.50436863833304,-0.250000000000001,-9.50000000000001));
#944=CARTESIAN_POINT('',(-1.525,0.,-9.5));
#945=CARTESIAN_POINT('',(-0.25,2.,-9.5));
#946=CARTESIAN_POINT('',(-0.25,0.25,-9.5));
#947=CARTESIAN_POINT('',(-0.25,0.25,-9.5));
#948=CARTESIAN_POINT('',(-1.525,0.,-9.5));
#949=CARTESIAN_POINT('',(-2.,-0.250000000000001,-9.5));
#950=CARTESIAN_POINT('',(-0.25,-0.25,-9.5));
#951=CARTESIAN_POINT('',(-0.25,-0.25,-9.5));
#952=CARTESIAN_POINT('',(-1.525,0.,-9.5));
#953=CARTESIAN_POINT('',(0.250000000000001,-2.,-9.5));
#954=CARTESIAN_POINT('',(0.250000000000001,-0.25,-9.5));
#955=CARTESIAN_POINT('',(0.250000000000001,-0.25,-9.5));
#956=CARTESIAN_POINT('',(-1.525,0.,-9.5));
#957=CARTESIAN_POINT('',(0.250000000000001,0.25,-9.5));
#958=CARTESIAN_POINT('',(0.250000000000001,0.25,-9.5));
#959=CARTESIAN_POINT('',(2.,0.25,-9.5));
#960=CARTESIAN_POINT('',(0.,0.,-6.));
#961=CARTESIAN_POINT('',(-0.25,0.903925823548556,-6.24999999998997));
#962=CARTESIAN_POINT('',(-0.25,0.877383700245915,-6.51278840576629));
#963=CARTESIAN_POINT('',(-0.25,0.73855340459372,-7.02005720303216));
#964=CARTESIAN_POINT('',(-0.25,0.453567358130935,-7.47684397052316));
#965=CARTESIAN_POINT('',(-0.25,0.25000000000005,-7.64991813916153));
#966=CARTESIAN_POINT('',(-0.25,0.903925823548347,-6.24999999998992));
#967=CARTESIAN_POINT('',(-0.25,0.25,-7.64991813916147));
#968=CARTESIAN_POINT('',(-0.25,0.903925823548347,-6.25));
#969=CARTESIAN_POINT('',(-0.25,0.917303050328164,-6.11755467680744));
#970=CARTESIAN_POINT('',(-0.133153977139753,0.949999999999999,-6.));
#971=CARTESIAN_POINT('',(3.14608198592102E-16,0.949999999999999,-6.));
#972=CARTESIAN_POINT('',(5.20417042793042E-16,0.949999999999999,-6.));
#973=CARTESIAN_POINT('',(0.,0.,-6.));
#974=CARTESIAN_POINT('',(-0.949999999999999,-3.25260651745651E-16,-6.));
#975=CARTESIAN_POINT('',(-0.949999999999999,-3.25260651745651E-16,-6.));
#976=CARTESIAN_POINT('',(-0.949999999999999,0.133123326331661,-6.));
#977=CARTESIAN_POINT('',(-0.917298918101836,0.25,-6.11759558916741));
#978=CARTESIAN_POINT('',(-0.903925823547329,0.25,-6.25));
#979=CARTESIAN_POINT('',(-0.903925823547326,0.25,-6.25000000000003));
#980=CARTESIAN_POINT('',(-0.249999999999999,0.25,-7.64991813916147));
#981=CARTESIAN_POINT('',(-0.450358211256957,0.25,-7.47957240612469));
#982=CARTESIAN_POINT('',(-0.738954306872712,0.25,-7.02092439035725));
#983=CARTESIAN_POINT('',(-0.877269148641666,0.25,-6.5139225589301));
#984=CARTESIAN_POINT('',(-0.903925823547326,0.25,-6.25000000000003));
#985=CARTESIAN_POINT('',(0.,0.,-6.));
#986=CARTESIAN_POINT('',(-0.903925823548555,-0.25,-6.24999999998997));
#987=CARTESIAN_POINT('',(-0.877383700245915,-0.25,-6.51278840576629));
#988=CARTESIAN_POINT('',(-0.738553404593718,-0.25,-7.02005720303216));
#989=CARTESIAN_POINT('',(-0.453567358130936,-0.25,-7.47684397052316));
#990=CARTESIAN_POINT('',(-0.25000000000005,-0.25,-7.64991813916153));
#991=CARTESIAN_POINT('',(-0.903925823548347,-0.25,-6.24999999998992));
#992=CARTESIAN_POINT('',(-0.25,-0.25,-7.64991813916147));
#993=CARTESIAN_POINT('',(-0.903925823548347,-0.25,-6.25));
#994=CARTESIAN_POINT('',(-0.917303050328164,-0.25,-6.11755467680744));
#995=CARTESIAN_POINT('',(-0.949999999999999,-0.133153977139753,-6.));
#996=CARTESIAN_POINT('',(-0.949999999999999,-1.8504570092541E-16,-6.));
#997=CARTESIAN_POINT('',(0.,0.,-6.));
#998=CARTESIAN_POINT('',(1.57209315010398E-16,-0.949999999999999,-6.));
#999=CARTESIAN_POINT('',(1.57209315010398E-16,-0.949999999999999,-6.));
#1000=CARTESIAN_POINT('',(-0.133123326331662,-0.949999999999999,-6.));
#1001=CARTESIAN_POINT('',(-0.25,-0.917298918101837,-6.11759558916741));
#1002=CARTESIAN_POINT('',(-0.25,-0.903925823547329,-6.25));
#1003=CARTESIAN_POINT('',(-0.25,-0.903925823547327,-6.25000000000003));
#1004=CARTESIAN_POINT('',(-0.25,-0.25,-7.64991813916147));
#1005=CARTESIAN_POINT('',(-0.25,-0.450358211256956,-7.47957240612469));
#1006=CARTESIAN_POINT('',(-0.25,-0.738954306872716,-7.02092439035724));
#1007=CARTESIAN_POINT('',(-0.25,-0.877269148641666,-6.5139225589301));
#1008=CARTESIAN_POINT('',(-0.25,-0.903925823547327,-6.25000000000003));
#1009=CARTESIAN_POINT('',(0.,0.,-6.));
#1010=CARTESIAN_POINT('',(0.250000000000001,-0.903925823548555,-6.24999999998997));
#1011=CARTESIAN_POINT('',(0.250000000000001,-0.877383700245915,-6.51278840576629));
#1012=CARTESIAN_POINT('',(0.250000000000001,-0.738553404593719,-7.02005720303216));
#1013=CARTESIAN_POINT('',(0.250000000000001,-0.453567358130936,-7.47684397052316));
#1014=CARTESIAN_POINT('',(0.250000000000001,-0.250000000000051,-7.64991813916153));
#1015=CARTESIAN_POINT('',(0.250000000000001,-0.903925823548347,-6.24999999998992));
#1016=CARTESIAN_POINT('',(0.250000000000001,-0.25,-7.64991813916147));
#1017=CARTESIAN_POINT('',(0.250000000000001,-0.903925823548347,-6.25));
#1018=CARTESIAN_POINT('',(0.250000000000001,-0.917303050328164,-6.11755467680744));
#1019=CARTESIAN_POINT('',(0.133153977139754,-0.949999999999999,-6.));
#1020=CARTESIAN_POINT('',(6.62217244980389E-16,-0.949999999999999,-6.));
#1021=CARTESIAN_POINT('',(0.,0.,-6.));
#1022=CARTESIAN_POINT('',(0.949999999999999,-3.57786716920215E-16,-6.));
#1023=CARTESIAN_POINT('',(0.949999999999999,-3.57786716920215E-16,-6.));
#1024=CARTESIAN_POINT('',(0.949999999999999,-0.133123326331662,-6.));
#1025=CARTESIAN_POINT('',(0.917298918101836,-0.25,-6.11759558916741));
#1026=CARTESIAN_POINT('',(0.903925823547329,-0.25,-6.25));
#1027=CARTESIAN_POINT('',(0.903925823547327,-0.25,-6.25000000000003));
#1028=CARTESIAN_POINT('',(0.250000000000001,-0.25,-7.64991813916147));
#1029=CARTESIAN_POINT('',(0.450358211256957,-0.25,-7.47957240612469));
#1030=CARTESIAN_POINT('',(0.738954306872714,-0.25,-7.02092439035724));
#1031=CARTESIAN_POINT('',(0.877269148641666,-0.25,-6.5139225589301));
#1032=CARTESIAN_POINT('',(0.903925823547326,-0.25,-6.25000000000003));
#1033=CARTESIAN_POINT('',(0.,0.,-6.));
#1034=CARTESIAN_POINT('',(0.250000000000001,0.249999999999999,-7.64991813916147));
#1035=CARTESIAN_POINT('',(0.250000000000001,0.450358211256957,-7.47957240612469));
#1036=CARTESIAN_POINT('',(0.250000000000001,0.738954306872715,-7.02092439035725));
#1037=CARTESIAN_POINT('',(0.250000000000001,0.877269148641666,-6.5139225589301));
#1038=CARTESIAN_POINT('',(0.250000000000001,0.903925823547326,-6.25000000000003));
#1039=CARTESIAN_POINT('',(0.250000000000001,0.25,-7.64991813916147));
#1040=CARTESIAN_POINT('',(0.250000000000001,0.903925823547326,-6.25000000000003));
#1041=CARTESIAN_POINT('',(0.903925823548556,0.25,-6.24999999998997));
#1042=CARTESIAN_POINT('',(0.877383700245915,0.25,-6.51278840576629));
#1043=CARTESIAN_POINT('',(0.738553404593718,0.25,-7.02005720303216));
#1044=CARTESIAN_POINT('',(0.453567358130936,0.25,-7.47684397052316));
#1045=CARTESIAN_POINT('',(0.250000000000051,0.25,-7.64991813916153));
#1046=CARTESIAN_POINT('',(0.903925823548347,0.25,-6.24999999998992));
#1047=CARTESIAN_POINT('',(0.903925823548347,0.25,-6.25));
#1048=CARTESIAN_POINT('',(0.917303050328164,0.25,-6.11755467680744));
#1049=CARTESIAN_POINT('',(0.949999999999999,0.133153977139753,-6.));
#1050=CARTESIAN_POINT('',(0.949999999999999,-3.98251642360566E-16,-6.));
#1051=CARTESIAN_POINT('',(0.,0.,-6.));
#1052=CARTESIAN_POINT('',(5.20417042793042E-16,0.949999999999999,-6.));
#1053=CARTESIAN_POINT('',(0.133123326331662,0.949999999999999,-6.));
#1054=CARTESIAN_POINT('',(0.250000000000001,0.917298918101836,-6.11759558916741));
#1055=CARTESIAN_POINT('',(0.250000000000001,0.903925823547329,-6.25));
#1056=CARTESIAN_POINT('',(0.,0.,-9.5));
#1057=CARTESIAN_POINT('',(0.,0.,0.));
#1058=CARTESIAN_POINT('',(-0.95,0.,0.));
#1059=CARTESIAN_POINT('',(-0.95,0.,-1.02607553810938E-16));
#1060=CARTESIAN_POINT('',(0.,0.,-1.02607553810938E-16));
#1061=CARTESIAN_POINT('',(-2.01132486540519,0.,-1.02607553810938E-16));
#1062=CARTESIAN_POINT('',(-2.3,0.,-0.5));
#1063=CARTESIAN_POINT('',(0.,0.,-0.5));
#1064=CARTESIAN_POINT('',(-2.3,0.,-0.5));
#1065=CARTESIAN_POINT('',(0.250000000000001,0.25,-6.));
#1066=CARTESIAN_POINT('',(0.250000000000001,0.25,-6.25));
#1067=CARTESIAN_POINT('',(0.250000000000001,0.25,-6.));
#1068=CARTESIAN_POINT('',(-0.25,2.,-6.));
#1069=CARTESIAN_POINT('',(-0.25,2.,-6.25));
#1070=CARTESIAN_POINT('',(-0.25,0.25,-6.));
#1071=CARTESIAN_POINT('',(-0.25,0.25,-6.));
#1072=CARTESIAN_POINT('',(-0.25,0.25,-6.25));
#1073=CARTESIAN_POINT('',(-2.,-0.250000000000001,-6.));
#1074=CARTESIAN_POINT('',(-2.,-0.250000000000001,-6.25));
#1075=CARTESIAN_POINT('',(-0.25,-0.25,-6.));
#1076=CARTESIAN_POINT('',(-0.25,-0.25,-6.));
#1077=CARTESIAN_POINT('',(-0.25,-0.25,-6.25));
#1078=CARTESIAN_POINT('',(0.250000000000001,-2.,-6.));
#1079=CARTESIAN_POINT('',(0.250000000000001,-2.,-6.25));
#1080=CARTESIAN_POINT('',(0.250000000000001,-0.25,-6.));
#1081=CARTESIAN_POINT('',(0.250000000000001,-0.25,-6.));
#1082=CARTESIAN_POINT('',(0.250000000000001,-0.25,-6.25));
#1083=CARTESIAN_POINT('',(2.,0.25,-6.));
#1084=CARTESIAN_POINT('',(2.,0.25,-6.25));
#1085=CARTESIAN_POINT('',(0.,0.,-0.5));
#1086=CARTESIAN_POINT('',(6.50521303491303E-16,-2.,-6.25));
#1087=CARTESIAN_POINT('',(-0.25,-3.25260651745651E-16,-6.25));
#1088=CARTESIAN_POINT('',(2.16840434497101E-16,2.,-6.25));
#1089=CARTESIAN_POINT('',(2.,-2.71050543121376E-16,-6.25));
#1090=CARTESIAN_POINT('',(0.,0.,0.));
#1091=CARTESIAN_POINT('',(-0.945,0.,-3.87517573368842E-16));
#1092=CARTESIAN_POINT('',(0.,0.,0.));
#1093=CARTESIAN_POINT('',(-0.945,0.,0.));
#1094=CARTESIAN_POINT('',(0.,0.,0.));
#1095=CARTESIAN_POINT('',(-2.21132486540519,0.,0.));
#1096=CARTESIAN_POINT('',(0.,0.,-9.7));
#1097=CARTESIAN_POINT('',(0.,0.,-8.7));
#1098=CARTESIAN_POINT('',(-0.944999999999999,0.,-8.7));
#1099=CARTESIAN_POINT('',(0.,0.,-8.7));
#1100=CARTESIAN_POINT('',(2.57498015965307E-16,0.,-9.7));
#1101=CARTESIAN_POINT('',(0.,0.,-7.8));
#1102=CARTESIAN_POINT('',(0.,0.,0.822492393406938));
#1103=CARTESIAN_POINT('',(-2.57926829268293,0.,0.822492393406938));
#1104=CARTESIAN_POINT('',(0.,0.,0.0560486251040994));
#1105=CARTESIAN_POINT('',(0.,0.,0.0560486251040999));
#1106=CARTESIAN_POINT('',(-3.15,0.,0.0560486251040999));
#1107=CARTESIAN_POINT('',(0.,0.,-9.7));
#1108=CARTESIAN_POINT('',(0.,0.,-0.5));
#1109=CARTESIAN_POINT('',(-3.15,0.,-0.5));
#1110=CARTESIAN_POINT('',(-2.5,0.,-0.500000000000001));
#1111=CARTESIAN_POINT('',(0.,0.,-0.5));
#1112=CARTESIAN_POINT('',(-2.5,0.,-0.5));
#1113=CARTESIAN_POINT('',(0.,0.,-0.5));
#1114=CARTESIAN_POINT('',(0.,0.,5.5));
#1115=MECHANICAL_DESIGN_GEOMETRIC_PRESENTATION_REPRESENTATION('',(#604,
#605),#1116);
#1116=(
GEOMETRIC_REPRESENTATION_CONTEXT(3)
GLOBAL_UNCERTAINTY_ASSIGNED_CONTEXT((#1119))
GLOBAL_UNIT_ASSIGNED_CONTEXT((#1124,#1123,#1122))
REPRESENTATION_CONTEXT('700973800UV','TOP_LEVEL_ASSEMBLY_PART')
);
#1117=(
GEOMETRIC_REPRESENTATION_CONTEXT(3)
GLOBAL_UNCERTAINTY_ASSIGNED_CONTEXT((#1120))
GLOBAL_UNIT_ASSIGNED_CONTEXT((#1124,#1123,#1122))
REPRESENTATION_CONTEXT('700973800UV_body','COMPONENT_PART')
);
#1118=(
GEOMETRIC_REPRESENTATION_CONTEXT(3)
GLOBAL_UNCERTAINTY_ASSIGNED_CONTEXT((#1121))
GLOBAL_UNIT_ASSIGNED_CONTEXT((#1124,#1123,#1122))
REPRESENTATION_CONTEXT('700973800UV_pin','COMPONENT_PART')
);
#1119=UNCERTAINTY_MEASURE_WITH_UNIT(LENGTH_MEASURE(0.005),#1124,
'DISTANCE_ACCURACY_VALUE','Maximum Tolerance applied to model');
#1120=UNCERTAINTY_MEASURE_WITH_UNIT(LENGTH_MEASURE(0.005),#1124,
'DISTANCE_ACCURACY_VALUE','Maximum Tolerance applied to model');
#1121=UNCERTAINTY_MEASURE_WITH_UNIT(LENGTH_MEASURE(0.005),#1124,
'DISTANCE_ACCURACY_VALUE','Maximum Tolerance applied to model');
#1122=(
NAMED_UNIT(*)
SI_UNIT($,.STERADIAN.)
SOLID_ANGLE_UNIT()
);
#1123=(
NAMED_UNIT(*)
PLANE_ANGLE_UNIT()
SI_UNIT($,.RADIAN.)
);
#1124=(
LENGTH_UNIT()
NAMED_UNIT(*)
SI_UNIT(.MILLI.,.METRE.)
);
#1125=PRODUCT_DEFINITION_SHAPE('','',#1130);
#1126=PRODUCT_DEFINITION_SHAPE('','',#1131);
#1127=PRODUCT_DEFINITION_SHAPE(' ','NAUO PRDDFN',#22);
#1128=PRODUCT_DEFINITION_SHAPE('','',#1132);
#1129=PRODUCT_DEFINITION_SHAPE(' ','NAUO PRDDFN',#23);
#1130=PRODUCT_DEFINITION('','',#1136,#1133);
#1131=PRODUCT_DEFINITION('','',#1137,#1134);
#1132=PRODUCT_DEFINITION('','',#1138,#1135);
#1133=PRODUCT_DEFINITION_CONTEXT('',#1152,'design');
#1134=PRODUCT_DEFINITION_CONTEXT('',#1152,'design');
#1135=PRODUCT_DEFINITION_CONTEXT('',#1152,'design');
#1136=PRODUCT_DEFINITION_FORMATION_WITH_SPECIFIED_SOURCE('','',#1142,
 .NOT_KNOWN.);
#1137=PRODUCT_DEFINITION_FORMATION_WITH_SPECIFIED_SOURCE('','',#1143,
 .NOT_KNOWN.);
#1138=PRODUCT_DEFINITION_FORMATION_WITH_SPECIFIED_SOURCE('','',#1144,
 .NOT_KNOWN.);
#1139=PRODUCT_RELATED_PRODUCT_CATEGORY('','',(#1142));
#1140=PRODUCT_RELATED_PRODUCT_CATEGORY('','',(#1143));
#1141=PRODUCT_RELATED_PRODUCT_CATEGORY('','',(#1144));
#1142=PRODUCT('700973800UV','700973800UV','700973800UV',(#1148));
#1143=PRODUCT('700973800UV_body','700973800UV_body','700973800UV_body',
(#1149));
#1144=PRODUCT('700973800UV_pin','700973800UV_pin','700973800UV_pin',(#1150));
#1145=PRODUCT_CATEGORY('','');
#1146=PRODUCT_CATEGORY('','');
#1147=PRODUCT_CATEGORY('','');
#1148=PRODUCT_CONTEXT('',#1152,'mechanical');
#1149=PRODUCT_CONTEXT('',#1152,'mechanical');
#1150=PRODUCT_CONTEXT('',#1152,'mechanical');
#1151=APPLICATION_PROTOCOL_DEFINITION('international standard',
'automotive_design',2010,#1152);
#1152=APPLICATION_CONTEXT(
'core data for automotive mechanical design processes');
ENDSEC;
END-ISO-10303-21;
